ISO-10303-21;
HEADER;
/* TerminalBlock_Phoenix_MKDS-1,5-2-5.08_1x02_P5.08mm_Horizontal.step 3D STEP model for use in ECAD systems
 * Copyright (C) 2026, KiCAD
 *
 * This work is licensed under the
 * [Creative Commons CC-BY-SA 4.0 License](https://creativecommons.org/licenses/by-sa/4.0/legalcode),
 * with the following exception:
 *
 * To the extent that the creation of electronic designs that use 'Licensed Material' can be
 * considered to be 'Adapted Material', then the copyright holder waives article 3 of the license
 * with respect to these designs and any generated files which use data provided as part of the
 * 'Licensed Material'.
 *
 * You are free to use the library data in your own projects without the obligation to share your
 * project files under this or any other license agreement. However, if you wish to distribute
 * these libraries, or parts thereof (including in modified form) as a collection then the exception
 * above does not apply. Please refer to
 * https://gitlab.com/kicad/libraries/kicad-packages3D/-/blob/master/LICENSE.md for further clarification
 * of the exception.
 *
 * Disclaimer of Warranties and Limitation of Liability.
 * These libraries are provided in the hope that they will be useful, but are provided without warranty of any kind, express or implied.
 * USE 3D CAD DATA AT YOUR OWN RISK
 * DO NOT RELY UPON ANY INFORMATION FOUND HERE WITHOUT INDEPENDENT VERIFICATION.
 */

FILE_DESCRIPTION(
/* description */ ('model of TerminalBlock_Phoenix_MKDS-1,5-2-5.08_1x02_P5.08mm_Horizontal'),
/* implementation_level */ '2;1');

FILE_NAME(
/* name */ 'TerminalBlock_Phoenix_MKDS-1,5-2-5.08_1x02_P5.08mm_Horizontal.step',
/* time_stamp */ '1970-01-01T00:00:00',
/* author */ ('KiCAD','kicad'),
/* organization */ ('OCCT'),
/* preprocessor_version */ '',
/* originating_system */ 'KiCAD',
/* authorisation */ '');

FILE_SCHEMA(('AUTOMOTIVE_DESIGN { 1 0 10303 214 1 1 1 1 }'));
ENDSEC;

DATA;
#1=APPLICATION_PROTOCOL_DEFINITION('international standard','automotive_design',2000,#2);
#2=APPLICATION_CONTEXT('core data for automotive mechanical design processes');
#3=SHAPE_DEFINITION_REPRESENTATION(#4,#10);
#4=PRODUCT_DEFINITION_SHAPE('','',#5);
#5=PRODUCT_DEFINITION('design','',#6,#9);
#6=PRODUCT_DEFINITION_FORMATION('','',#7);
#7=PRODUCT('TerminalBlock_Phoenix_MKDS-1,5-2-5.08_1x02_P5.08mm_Horizontal','TerminalBlock_Phoenix_MKDS-1,5-2-5.08_1x02_P5.08mm_Horizontal','',(#8));
#8=PRODUCT_CONTEXT('',#2,'mechanical');
#9=PRODUCT_DEFINITION_CONTEXT('part definition',#2,'design');
#10=ADVANCED_BREP_SHAPE_REPRESENTATION('',(#11,#15),#1595);
#11=AXIS2_PLACEMENT_3D('',#12,#13,#14);
#12=CARTESIAN_POINT('',(0.,0.,0.));
#13=DIRECTION('',(0.,0.,1.));
#14=DIRECTION('',(1.,0.,-0.));
#15=MANIFOLD_SOLID_BREP('',#16);
#16=CLOSED_SHELL('',(#17,#143,#201,#261,#277,#320,#335,#349,#361,#375,#385,#395,#415,#430,#445,#455,#475,#490,#505,#515,#528,#556,#563,#569,#577,#595,#609,#623,#633,#651,#665,#679,#689,#695,#701,#707,#774,#841,#862,#878,#894,#908,#929,#945,#961,#975,#983,#1002,#1015,#1030,#1047,#1052,#1057,#1065,#1084,#1097,#1112,#1129,#1134,#1139,#1173,#1207,#1218,#1283,#1288,#1299,#1364,#1369,#1374,#1392,#1406,#1420,#1430,#1435,#1453,#1467,#1481,#1491,#1499,#1510,#1519,#1530,#1533,#1541,#1552,#1561,#1572,#1575,#1585));
#17=ADVANCED_FACE('',(#18,#87,#115),#141,.F.);
#18=FACE_BOUND('',#19,.F.);
#19=EDGE_LOOP('',(#20,#29,#35,#40,#47,#54,#61,#65,#70,#74,#79,#84));
#20=ORIENTED_EDGE('',*,*,#21,.F.);
#21=EDGE_CURVE('',#22,#24,#26,.T.);
#22=VERTEX_POINT('',#23);
#23=CARTESIAN_POINT('',(-2.54,-4.6,0.));
#24=VERTEX_POINT('',#25);
#25=CARTESIAN_POINT('',(-2.54,-3.83,0.));
#26=LINE('',#23,#27);
#27=VECTOR('',#28,1.);
#28=DIRECTION('',(0.,1.,0.));
#29=ORIENTED_EDGE('',*,*,#30,.T.);
#30=EDGE_CURVE('',#22,#31,#33,.T.);
#31=VERTEX_POINT('',#32);
#32=CARTESIAN_POINT('',(7.62,-4.6,0.));
#33=LINE('',#23,#34);
#34=VECTOR('',#14,1.);
#35=ORIENTED_EDGE('',*,*,#36,.T.);
#36=EDGE_CURVE('',#31,#37,#39,.T.);
#37=VERTEX_POINT('',#38);
#38=CARTESIAN_POINT('',(7.62,-3.83,0.));
#39=LINE('',#32,#27);
#40=ORIENTED_EDGE('',*,*,#41,.F.);
#41=EDGE_CURVE('',#42,#37,#44,.T.);
#42=VERTEX_POINT('',#43);
#43=CARTESIAN_POINT('',(6.88,-4.06,0.));
#44=LINE('',#43,#45);
#45=VECTOR('',#46,1.);
#46=DIRECTION('',(0.954938084056,0.296805080179,0.));
#47=ORIENTED_EDGE('',*,*,#48,.F.);
#48=EDGE_CURVE('',#49,#42,#51,.T.);
#49=VERTEX_POINT('',#50);
#50=CARTESIAN_POINT('',(6.88,-3.14,0.));
#51=LINE('',#50,#52);
#52=VECTOR('',#53,1.);
#53=DIRECTION('',(0.,-1.,0.));
#54=ORIENTED_EDGE('',*,*,#55,.F.);
#55=EDGE_CURVE('',#56,#49,#58,.T.);
#56=VERTEX_POINT('',#57);
#57=CARTESIAN_POINT('',(7.62,-3.37,0.));
#58=LINE('',#57,#59);
#59=VECTOR('',#60,1.);
#60=DIRECTION('',(-0.954938084056,0.296805080179,0.));
#61=ORIENTED_EDGE('',*,*,#62,.T.);
#62=EDGE_CURVE('',#56,#63,#39,.T.);
#63=VERTEX_POINT('',#64);
#64=CARTESIAN_POINT('',(7.62,5.2,0.));
#65=ORIENTED_EDGE('',*,*,#66,.F.);
#66=EDGE_CURVE('',#67,#63,#69,.T.);
#67=VERTEX_POINT('',#68);
#68=CARTESIAN_POINT('',(-2.54,5.2,0.));
#69=LINE('',#68,#34);
#70=ORIENTED_EDGE('',*,*,#71,.F.);
#71=EDGE_CURVE('',#72,#67,#26,.T.);
#72=VERTEX_POINT('',#73);
#73=CARTESIAN_POINT('',(-2.54,-3.37,0.));
#74=ORIENTED_EDGE('',*,*,#75,.T.);
#75=EDGE_CURVE('',#72,#76,#78,.T.);
#76=VERTEX_POINT('',#77);
#77=CARTESIAN_POINT('',(-3.28,-3.14,0.));
#78=LINE('',#73,#59);
#79=ORIENTED_EDGE('',*,*,#80,.T.);
#80=EDGE_CURVE('',#76,#81,#83,.T.);
#81=VERTEX_POINT('',#82);
#82=CARTESIAN_POINT('',(-3.28,-4.06,0.));
#83=LINE('',#77,#52);
#84=ORIENTED_EDGE('',*,*,#85,.T.);
#85=EDGE_CURVE('',#81,#24,#86,.T.);
#86=LINE('',#82,#45);
#87=FACE_BOUND('',#88,.F.);
#88=EDGE_LOOP('',(#89,#97,#103,#111));
#89=ORIENTED_EDGE('',*,*,#90,.F.);
#90=EDGE_CURVE('',#91,#93,#95,.T.);
#91=VERTEX_POINT('',#92);
#92=CARTESIAN_POINT('',(4.63,-0.45,0.));
#93=VERTEX_POINT('',#94);
#94=CARTESIAN_POINT('',(5.53,-0.45,0.));
#95=LINE('',#96,#34);
#96=CARTESIAN_POINT('',(1.045,-0.45,0.));
#97=ORIENTED_EDGE('',*,*,#98,.F.);
#98=EDGE_CURVE('',#99,#91,#101,.T.);
#99=VERTEX_POINT('',#100);
#100=CARTESIAN_POINT('',(4.63,0.45,0.));
#101=LINE('',#102,#52);
#102=CARTESIAN_POINT('',(4.63,-2.075,0.));
#103=ORIENTED_EDGE('',*,*,#104,.F.);
#104=EDGE_CURVE('',#105,#99,#107,.T.);
#105=VERTEX_POINT('',#106);
#106=CARTESIAN_POINT('',(5.53,0.45,0.));
#107=LINE('',#108,#109);
#108=CARTESIAN_POINT('',(1.495,0.45,0.));
#109=VECTOR('',#110,1.);
#110=DIRECTION('',(-1.,0.,0.));
#111=ORIENTED_EDGE('',*,*,#112,.F.);
#112=EDGE_CURVE('',#93,#105,#113,.T.);
#113=LINE('',#114,#27);
#114=CARTESIAN_POINT('',(5.53,-2.525,0.));
#115=FACE_BOUND('',#116,.F.);
#116=EDGE_LOOP('',(#117,#125,#131,#137));
#117=ORIENTED_EDGE('',*,*,#118,.F.);
#118=EDGE_CURVE('',#119,#121,#123,.T.);
#119=VERTEX_POINT('',#120);
#120=CARTESIAN_POINT('',(-0.45,-0.45,0.));
#121=VERTEX_POINT('',#122);
#122=CARTESIAN_POINT('',(0.45,-0.45,0.));
#123=LINE('',#124,#34);
#124=CARTESIAN_POINT('',(-1.495,-0.45,0.));
#125=ORIENTED_EDGE('',*,*,#126,.F.);
#126=EDGE_CURVE('',#127,#119,#129,.T.);
#127=VERTEX_POINT('',#128);
#128=CARTESIAN_POINT('',(-0.45,0.45,0.));
#129=LINE('',#130,#52);
#130=CARTESIAN_POINT('',(-0.45,-2.075,0.));
#131=ORIENTED_EDGE('',*,*,#132,.F.);
#132=EDGE_CURVE('',#133,#127,#135,.T.);
#133=VERTEX_POINT('',#134);
#134=CARTESIAN_POINT('',(0.45,0.45,0.));
#135=LINE('',#136,#109);
#136=CARTESIAN_POINT('',(-1.045,0.45,0.));
#137=ORIENTED_EDGE('',*,*,#138,.F.);
#138=EDGE_CURVE('',#121,#133,#139,.T.);
#139=LINE('',#140,#27);
#140=CARTESIAN_POINT('',(0.45,-2.525,0.));
#141=PLANE('',#142);
#142=AXIS2_PLACEMENT_3D('',#23,#13,#28);
#143=ADVANCED_FACE('',(#144),#198,.F.);
#144=FACE_BOUND('',#145,.F.);
#145=EDGE_LOOP('',(#146,#155,#160,#166,#167,#173,#178,#181,#182,#187,#194));
#146=ORIENTED_EDGE('',*,*,#147,.T.);
#147=EDGE_CURVE('',#148,#150,#152,.T.);
#148=VERTEX_POINT('',#149);
#149=CARTESIAN_POINT('',(-2.54,-2.6,13.8));
#150=VERTEX_POINT('',#151);
#151=CARTESIAN_POINT('',(-2.54,-4.1,7.4));
#152=LINE('',#149,#153);
#153=VECTOR('',#154,1.);
#154=DIRECTION('',(0.,-0.228191322789,-0.973616310568));
#155=ORIENTED_EDGE('',*,*,#156,.T.);
#156=EDGE_CURVE('',#150,#157,#159,.T.);
#157=VERTEX_POINT('',#158);
#158=CARTESIAN_POINT('',(-2.54,-4.6,7.4));
#159=LINE('',#151,#52);
#160=ORIENTED_EDGE('',*,*,#161,.T.);
#161=EDGE_CURVE('',#157,#22,#162,.T.);
#162=LINE('',#163,#164);
#163=CARTESIAN_POINT('',(-2.54,-4.6,13.8));
#164=VECTOR('',#165,1.);
#165=DIRECTION('',(0.,0.,-1.));
#166=ORIENTED_EDGE('',*,*,#21,.T.);
#167=ORIENTED_EDGE('',*,*,#168,.T.);
#168=EDGE_CURVE('',#24,#169,#171,.T.);
#169=VERTEX_POINT('',#170);
#170=CARTESIAN_POINT('',(-2.54,-3.83,7.));
#171=LINE('',#25,#172);
#172=VECTOR('',#13,1.);
#173=ORIENTED_EDGE('',*,*,#174,.T.);
#174=EDGE_CURVE('',#169,#175,#177,.T.);
#175=VERTEX_POINT('',#176);
#176=CARTESIAN_POINT('',(-2.54,-3.37,7.));
#177=LINE('',#170,#27);
#178=ORIENTED_EDGE('',*,*,#179,.F.);
#179=EDGE_CURVE('',#72,#175,#180,.T.);
#180=LINE('',#73,#172);
#181=ORIENTED_EDGE('',*,*,#71,.T.);
#182=ORIENTED_EDGE('',*,*,#183,.T.);
#183=EDGE_CURVE('',#67,#184,#186,.T.);
#184=VERTEX_POINT('',#185);
#185=CARTESIAN_POINT('',(-2.54,5.2,4.57));
#186=LINE('',#68,#172);
#187=ORIENTED_EDGE('',*,*,#188,.F.);
#188=EDGE_CURVE('',#189,#184,#191,.T.);
#189=VERTEX_POINT('',#190);
#190=CARTESIAN_POINT('',(-2.54,2.2,13.8));
#191=LINE('',#190,#192);
#192=VECTOR('',#193,1.);
#193=DIRECTION('',(0.,0.309109370483,-0.951026496518));
#194=ORIENTED_EDGE('',*,*,#195,.T.);
#195=EDGE_CURVE('',#189,#148,#196,.T.);
#196=LINE('',#197,#52);
#197=CARTESIAN_POINT('',(-2.54,5.2,13.8));
#198=PLANE('',#199);
#199=AXIS2_PLACEMENT_3D('',#200,#14,#13);
#200=CARTESIAN_POINT('',(-2.54,0.3,6.9));
#201=ADVANCED_FACE('',(#202,#215,#237),#259,.F.);
#202=FACE_BOUND('',#203,.F.);
#203=EDGE_LOOP('',(#204,#205,#210,#214));
#204=ORIENTED_EDGE('',*,*,#161,.F.);
#205=ORIENTED_EDGE('',*,*,#206,.T.);
#206=EDGE_CURVE('',#157,#207,#209,.T.);
#207=VERTEX_POINT('',#208);
#208=CARTESIAN_POINT('',(7.62,-4.6,7.4));
#209=LINE('',#158,#34);
#210=ORIENTED_EDGE('',*,*,#211,.T.);
#211=EDGE_CURVE('',#207,#31,#212,.T.);
#212=LINE('',#213,#164);
#213=CARTESIAN_POINT('',(7.62,-4.6,13.8));
#214=ORIENTED_EDGE('',*,*,#30,.F.);
#215=FACE_BOUND('',#216,.F.);
#216=EDGE_LOOP('',(#217,#224,#229,#234));
#217=ORIENTED_EDGE('',*,*,#218,.F.);
#218=EDGE_CURVE('',#219,#221,#223,.T.);
#219=VERTEX_POINT('',#220);
#220=CARTESIAN_POINT('',(6.88,-4.6,1.6));
#221=VERTEX_POINT('',#222);
#222=CARTESIAN_POINT('',(3.28,-4.6,1.6));
#223=LINE('',#220,#109);
#224=ORIENTED_EDGE('',*,*,#225,.F.);
#225=EDGE_CURVE('',#226,#219,#228,.T.);
#226=VERTEX_POINT('',#227);
#227=CARTESIAN_POINT('',(6.88,-4.6,6.8));
#228=LINE('',#227,#164);
#229=ORIENTED_EDGE('',*,*,#230,.F.);
#230=EDGE_CURVE('',#231,#226,#233,.T.);
#231=VERTEX_POINT('',#232);
#232=CARTESIAN_POINT('',(3.28,-4.6,6.8));
#233=LINE('',#232,#34);
#234=ORIENTED_EDGE('',*,*,#235,.F.);
#235=EDGE_CURVE('',#221,#231,#236,.T.);
#236=LINE('',#222,#172);
#237=FACE_BOUND('',#238,.F.);
#238=EDGE_LOOP('',(#239,#246,#251,#256));
#239=ORIENTED_EDGE('',*,*,#240,.F.);
#240=EDGE_CURVE('',#241,#243,#245,.T.);
#241=VERTEX_POINT('',#242);
#242=CARTESIAN_POINT('',(1.8,-4.6,1.6));
#243=VERTEX_POINT('',#244);
#244=CARTESIAN_POINT('',(-1.8,-4.6,1.6));
#245=LINE('',#242,#109);
#246=ORIENTED_EDGE('',*,*,#247,.F.);
#247=EDGE_CURVE('',#248,#241,#250,.T.);
#248=VERTEX_POINT('',#249);
#249=CARTESIAN_POINT('',(1.8,-4.6,6.8));
#250=LINE('',#249,#164);
#251=ORIENTED_EDGE('',*,*,#252,.F.);
#252=EDGE_CURVE('',#253,#248,#255,.T.);
#253=VERTEX_POINT('',#254);
#254=CARTESIAN_POINT('',(-1.8,-4.6,6.8));
#255=LINE('',#254,#34);
#256=ORIENTED_EDGE('',*,*,#257,.F.);
#257=EDGE_CURVE('',#243,#253,#258,.T.);
#258=LINE('',#244,#172);
#259=PLANE('',#260);
#260=AXIS2_PLACEMENT_3D('',#163,#28,#165);
#261=ADVANCED_FACE('',(#262),#274,.F.);
#262=FACE_BOUND('',#263,.F.);
#263=EDGE_LOOP('',(#264,#269,#272,#273));
#264=ORIENTED_EDGE('',*,*,#265,.T.);
#265=EDGE_CURVE('',#81,#266,#268,.T.);
#266=VERTEX_POINT('',#267);
#267=CARTESIAN_POINT('',(-3.28,-4.06,7.));
#268=LINE('',#82,#172);
#269=ORIENTED_EDGE('',*,*,#270,.T.);
#270=EDGE_CURVE('',#266,#169,#271,.T.);
#271=LINE('',#267,#45);
#272=ORIENTED_EDGE('',*,*,#168,.F.);
#273=ORIENTED_EDGE('',*,*,#85,.F.);
#274=PLANE('',#275);
#275=AXIS2_PLACEMENT_3D('',#82,#276,#46);
#276=DIRECTION('',(-0.296805080179,0.954938084056,0.));
#277=ADVANCED_FACE('',(#278),#317,.T.);
#278=FACE_BOUND('',#279,.T.);
#279=EDGE_LOOP('',(#280,#287,#210,#35,#290,#295,#300,#61,#303,#308,#313));
#280=ORIENTED_EDGE('',*,*,#281,.T.);
#281=EDGE_CURVE('',#282,#284,#286,.T.);
#282=VERTEX_POINT('',#283);
#283=CARTESIAN_POINT('',(7.62,-2.6,13.8));
#284=VERTEX_POINT('',#285);
#285=CARTESIAN_POINT('',(7.62,-4.1,7.4));
#286=LINE('',#283,#153);
#287=ORIENTED_EDGE('',*,*,#288,.T.);
#288=EDGE_CURVE('',#284,#207,#289,.T.);
#289=LINE('',#285,#52);
#290=ORIENTED_EDGE('',*,*,#291,.T.);
#291=EDGE_CURVE('',#37,#292,#294,.T.);
#292=VERTEX_POINT('',#293);
#293=CARTESIAN_POINT('',(7.62,-3.83,7.));
#294=LINE('',#38,#172);
#295=ORIENTED_EDGE('',*,*,#296,.T.);
#296=EDGE_CURVE('',#292,#297,#299,.T.);
#297=VERTEX_POINT('',#298);
#298=CARTESIAN_POINT('',(7.62,-3.37,7.));
#299=LINE('',#293,#27);
#300=ORIENTED_EDGE('',*,*,#301,.F.);
#301=EDGE_CURVE('',#56,#297,#302,.T.);
#302=LINE('',#57,#172);
#303=ORIENTED_EDGE('',*,*,#304,.T.);
#304=EDGE_CURVE('',#63,#305,#307,.T.);
#305=VERTEX_POINT('',#306);
#306=CARTESIAN_POINT('',(7.62,5.2,4.57));
#307=LINE('',#64,#172);
#308=ORIENTED_EDGE('',*,*,#309,.F.);
#309=EDGE_CURVE('',#310,#305,#312,.T.);
#310=VERTEX_POINT('',#311);
#311=CARTESIAN_POINT('',(7.62,2.2,13.8));
#312=LINE('',#311,#192);
#313=ORIENTED_EDGE('',*,*,#314,.T.);
#314=EDGE_CURVE('',#310,#282,#315,.T.);
#315=LINE('',#316,#52);
#316=CARTESIAN_POINT('',(7.62,5.2,13.8));
#317=PLANE('',#318);
#318=AXIS2_PLACEMENT_3D('',#319,#14,#13);
#319=CARTESIAN_POINT('',(7.62,0.3,6.9));
#320=ADVANCED_FACE('',(#321),#333,.F.);
#321=FACE_BOUND('',#322,.F.);
#322=EDGE_LOOP('',(#323,#328,#331,#332));
#323=ORIENTED_EDGE('',*,*,#324,.T.);
#324=EDGE_CURVE('',#76,#325,#327,.T.);
#325=VERTEX_POINT('',#326);
#326=CARTESIAN_POINT('',(-3.28,-3.14,7.));
#327=LINE('',#77,#172);
#328=ORIENTED_EDGE('',*,*,#329,.T.);
#329=EDGE_CURVE('',#325,#266,#330,.T.);
#330=LINE('',#326,#52);
#331=ORIENTED_EDGE('',*,*,#265,.F.);
#332=ORIENTED_EDGE('',*,*,#80,.F.);
#333=PLANE('',#334);
#334=AXIS2_PLACEMENT_3D('',#77,#14,#53);
#335=ADVANCED_FACE('',(#336),#347,.T.);
#336=FACE_BOUND('',#337,.T.);
#337=EDGE_LOOP('',(#338,#343,#346,#40));
#338=ORIENTED_EDGE('',*,*,#339,.T.);
#339=EDGE_CURVE('',#42,#340,#342,.T.);
#340=VERTEX_POINT('',#341);
#341=CARTESIAN_POINT('',(6.88,-4.06,7.));
#342=LINE('',#43,#172);
#343=ORIENTED_EDGE('',*,*,#344,.T.);
#344=EDGE_CURVE('',#340,#292,#345,.T.);
#345=LINE('',#341,#45);
#346=ORIENTED_EDGE('',*,*,#291,.F.);
#347=PLANE('',#348);
#348=AXIS2_PLACEMENT_3D('',#43,#276,#46);
#349=ADVANCED_FACE('',(#350),#358,.F.);
#350=FACE_BOUND('',#351,.F.);
#351=EDGE_LOOP('',(#352,#353,#356,#357));
#352=ORIENTED_EDGE('',*,*,#179,.T.);
#353=ORIENTED_EDGE('',*,*,#354,.T.);
#354=EDGE_CURVE('',#175,#325,#355,.T.);
#355=LINE('',#176,#59);
#356=ORIENTED_EDGE('',*,*,#324,.F.);
#357=ORIENTED_EDGE('',*,*,#75,.F.);
#358=PLANE('',#359);
#359=AXIS2_PLACEMENT_3D('',#73,#360,#60);
#360=DIRECTION('',(-0.296805080179,-0.954938084056,0.));
#361=ADVANCED_FACE('',(#362),#373,.T.);
#362=FACE_BOUND('',#363,.T.);
#363=EDGE_LOOP('',(#364,#369,#372,#47));
#364=ORIENTED_EDGE('',*,*,#365,.T.);
#365=EDGE_CURVE('',#49,#366,#368,.T.);
#366=VERTEX_POINT('',#367);
#367=CARTESIAN_POINT('',(6.88,-3.14,7.));
#368=LINE('',#50,#172);
#369=ORIENTED_EDGE('',*,*,#370,.T.);
#370=EDGE_CURVE('',#366,#340,#371,.T.);
#371=LINE('',#367,#52);
#372=ORIENTED_EDGE('',*,*,#339,.F.);
#373=PLANE('',#374);
#374=AXIS2_PLACEMENT_3D('',#50,#14,#53);
#375=ADVANCED_FACE('',(#376),#383,.T.);
#376=FACE_BOUND('',#377,.T.);
#377=EDGE_LOOP('',(#378,#379,#382,#54));
#378=ORIENTED_EDGE('',*,*,#301,.T.);
#379=ORIENTED_EDGE('',*,*,#380,.T.);
#380=EDGE_CURVE('',#297,#366,#381,.T.);
#381=LINE('',#298,#59);
#382=ORIENTED_EDGE('',*,*,#365,.F.);
#383=PLANE('',#384);
#384=AXIS2_PLACEMENT_3D('',#57,#360,#60);
#385=ADVANCED_FACE('',(#386),#393,.F.);
#386=FACE_BOUND('',#387,.F.);
#387=EDGE_LOOP('',(#388,#389,#303,#390));
#388=ORIENTED_EDGE('',*,*,#183,.F.);
#389=ORIENTED_EDGE('',*,*,#66,.T.);
#390=ORIENTED_EDGE('',*,*,#391,.F.);
#391=EDGE_CURVE('',#184,#305,#392,.T.);
#392=LINE('',#185,#34);
#393=PLANE('',#394);
#394=AXIS2_PLACEMENT_3D('',#68,#53,#13);
#395=ADVANCED_FACE('',(#396),#413,.T.);
#396=FACE_BOUND('',#397,.T.);
#397=EDGE_LOOP('',(#89,#398,#404,#409));
#398=ORIENTED_EDGE('',*,*,#399,.T.);
#399=EDGE_CURVE('',#91,#400,#402,.T.);
#400=VERTEX_POINT('',#401);
#401=CARTESIAN_POINT('',(4.63,-0.45,-3.5));
#402=LINE('',#403,#164);
#403=CARTESIAN_POINT('',(4.63,-0.45,2.4));
#404=ORIENTED_EDGE('',*,*,#405,.T.);
#405=EDGE_CURVE('',#400,#406,#408,.T.);
#406=VERTEX_POINT('',#407);
#407=CARTESIAN_POINT('',(5.53,-0.45,-3.5));
#408=LINE('',#401,#34);
#409=ORIENTED_EDGE('',*,*,#410,.F.);
#410=EDGE_CURVE('',#93,#406,#411,.T.);
#411=LINE('',#412,#164);
#412=CARTESIAN_POINT('',(5.53,-0.45,2.4));
#413=PLANE('',#414);
#414=AXIS2_PLACEMENT_3D('',#403,#53,#14);
#415=ADVANCED_FACE('',(#416),#428,.T.);
#416=FACE_BOUND('',#417,.T.);
#417=EDGE_LOOP('',(#111,#418,#419,#424));
#418=ORIENTED_EDGE('',*,*,#410,.T.);
#419=ORIENTED_EDGE('',*,*,#420,.T.);
#420=EDGE_CURVE('',#406,#421,#423,.T.);
#421=VERTEX_POINT('',#422);
#422=CARTESIAN_POINT('',(5.53,0.45,-3.5));
#423=LINE('',#407,#27);
#424=ORIENTED_EDGE('',*,*,#425,.F.);
#425=EDGE_CURVE('',#105,#421,#426,.T.);
#426=LINE('',#427,#164);
#427=CARTESIAN_POINT('',(5.53,0.45,2.4));
#428=PLANE('',#429);
#429=AXIS2_PLACEMENT_3D('',#412,#14,#28);
#430=ADVANCED_FACE('',(#431),#443,.T.);
#431=FACE_BOUND('',#432,.T.);
#432=EDGE_LOOP('',(#103,#433,#434,#439));
#433=ORIENTED_EDGE('',*,*,#425,.T.);
#434=ORIENTED_EDGE('',*,*,#435,.T.);
#435=EDGE_CURVE('',#421,#436,#438,.T.);
#436=VERTEX_POINT('',#437);
#437=CARTESIAN_POINT('',(4.63,0.45,-3.5));
#438=LINE('',#422,#109);
#439=ORIENTED_EDGE('',*,*,#440,.F.);
#440=EDGE_CURVE('',#99,#436,#441,.T.);
#441=LINE('',#442,#164);
#442=CARTESIAN_POINT('',(4.63,0.45,2.4));
#443=PLANE('',#444);
#444=AXIS2_PLACEMENT_3D('',#427,#28,#110);
#445=ADVANCED_FACE('',(#446),#453,.T.);
#446=FACE_BOUND('',#447,.T.);
#447=EDGE_LOOP('',(#97,#448,#449,#452));
#448=ORIENTED_EDGE('',*,*,#440,.T.);
#449=ORIENTED_EDGE('',*,*,#450,.T.);
#450=EDGE_CURVE('',#436,#400,#451,.T.);
#451=LINE('',#437,#52);
#452=ORIENTED_EDGE('',*,*,#399,.F.);
#453=PLANE('',#454);
#454=AXIS2_PLACEMENT_3D('',#442,#110,#53);
#455=ADVANCED_FACE('',(#456),#473,.T.);
#456=FACE_BOUND('',#457,.T.);
#457=EDGE_LOOP('',(#117,#458,#464,#469));
#458=ORIENTED_EDGE('',*,*,#459,.T.);
#459=EDGE_CURVE('',#119,#460,#462,.T.);
#460=VERTEX_POINT('',#461);
#461=CARTESIAN_POINT('',(-0.45,-0.45,-3.5));
#462=LINE('',#463,#164);
#463=CARTESIAN_POINT('',(-0.45,-0.45,2.4));
#464=ORIENTED_EDGE('',*,*,#465,.T.);
#465=EDGE_CURVE('',#460,#466,#468,.T.);
#466=VERTEX_POINT('',#467);
#467=CARTESIAN_POINT('',(0.45,-0.45,-3.5));
#468=LINE('',#461,#34);
#469=ORIENTED_EDGE('',*,*,#470,.F.);
#470=EDGE_CURVE('',#121,#466,#471,.T.);
#471=LINE('',#472,#164);
#472=CARTESIAN_POINT('',(0.45,-0.45,2.4));
#473=PLANE('',#474);
#474=AXIS2_PLACEMENT_3D('',#463,#53,#14);
#475=ADVANCED_FACE('',(#476),#488,.T.);
#476=FACE_BOUND('',#477,.T.);
#477=EDGE_LOOP('',(#137,#478,#479,#484));
#478=ORIENTED_EDGE('',*,*,#470,.T.);
#479=ORIENTED_EDGE('',*,*,#480,.T.);
#480=EDGE_CURVE('',#466,#481,#483,.T.);
#481=VERTEX_POINT('',#482);
#482=CARTESIAN_POINT('',(0.45,0.45,-3.5));
#483=LINE('',#467,#27);
#484=ORIENTED_EDGE('',*,*,#485,.F.);
#485=EDGE_CURVE('',#133,#481,#486,.T.);
#486=LINE('',#487,#164);
#487=CARTESIAN_POINT('',(0.45,0.45,2.4));
#488=PLANE('',#489);
#489=AXIS2_PLACEMENT_3D('',#472,#14,#28);
#490=ADVANCED_FACE('',(#491),#503,.T.);
#491=FACE_BOUND('',#492,.T.);
#492=EDGE_LOOP('',(#131,#493,#494,#499));
#493=ORIENTED_EDGE('',*,*,#485,.T.);
#494=ORIENTED_EDGE('',*,*,#495,.T.);
#495=EDGE_CURVE('',#481,#496,#498,.T.);
#496=VERTEX_POINT('',#497);
#497=CARTESIAN_POINT('',(-0.45,0.45,-3.5));
#498=LINE('',#482,#109);
#499=ORIENTED_EDGE('',*,*,#500,.F.);
#500=EDGE_CURVE('',#127,#496,#501,.T.);
#501=LINE('',#502,#164);
#502=CARTESIAN_POINT('',(-0.45,0.45,2.4));
#503=PLANE('',#504);
#504=AXIS2_PLACEMENT_3D('',#487,#28,#110);
#505=ADVANCED_FACE('',(#506),#513,.T.);
#506=FACE_BOUND('',#507,.T.);
#507=EDGE_LOOP('',(#125,#508,#509,#512));
#508=ORIENTED_EDGE('',*,*,#500,.T.);
#509=ORIENTED_EDGE('',*,*,#510,.T.);
#510=EDGE_CURVE('',#496,#460,#511,.T.);
#511=LINE('',#497,#52);
#512=ORIENTED_EDGE('',*,*,#459,.F.);
#513=PLANE('',#514);
#514=AXIS2_PLACEMENT_3D('',#502,#110,#53);
#515=ADVANCED_FACE('',(#516),#525,.F.);
#516=FACE_BOUND('',#517,.F.);
#517=EDGE_LOOP('',(#518,#280,#521,#524));
#518=ORIENTED_EDGE('',*,*,#519,.T.);
#519=EDGE_CURVE('',#148,#282,#520,.T.);
#520=LINE('',#149,#34);
#521=ORIENTED_EDGE('',*,*,#522,.F.);
#522=EDGE_CURVE('',#150,#284,#523,.T.);
#523=LINE('',#151,#34);
#524=ORIENTED_EDGE('',*,*,#147,.F.);
#525=PLANE('',#526);
#526=AXIS2_PLACEMENT_3D('',#149,#527,#154);
#527=DIRECTION('',(0.,0.973616310568,-0.228191322789));
#528=ADVANCED_FACE('',(#529,#536,#545),#554,.F.);
#529=FACE_BOUND('',#530,.F.);
#530=EDGE_LOOP('',(#531,#532,#313,#535));
#531=ORIENTED_EDGE('',*,*,#195,.F.);
#532=ORIENTED_EDGE('',*,*,#533,.T.);
#533=EDGE_CURVE('',#189,#310,#534,.T.);
#534=LINE('',#190,#34);
#535=ORIENTED_EDGE('',*,*,#519,.F.);
#536=FACE_BOUND('',#537,.F.);
#537=EDGE_LOOP('',(#538));
#538=ORIENTED_EDGE('',*,*,#539,.T.);
#539=EDGE_CURVE('',#540,#540,#542,.T.);
#540=VERTEX_POINT('',#541);
#541=CARTESIAN_POINT('',(7.08,-0.2,13.8));
#542=CIRCLE('',#543,2.);
#543=AXIS2_PLACEMENT_3D('',#544,#13,#14);
#544=CARTESIAN_POINT('',(5.08,-0.2,13.8));
#545=FACE_BOUND('',#546,.F.);
#546=EDGE_LOOP('',(#547));
#547=ORIENTED_EDGE('',*,*,#548,.T.);
#548=EDGE_CURVE('',#549,#549,#551,.T.);
#549=VERTEX_POINT('',#550);
#550=CARTESIAN_POINT('',(2.,-0.2,13.8));
#551=CIRCLE('',#552,2.);
#552=AXIS2_PLACEMENT_3D('',#553,#13,#14);
#553=CARTESIAN_POINT('',(0.,-0.2,13.8));
#554=PLANE('',#555);
#555=AXIS2_PLACEMENT_3D('',#197,#165,#53);
#556=ADVANCED_FACE('',(#557),#560,.T.);
#557=FACE_BOUND('',#558,.T.);
#558=EDGE_LOOP('',(#532,#559,#390,#187));
#559=ORIENTED_EDGE('',*,*,#309,.T.);
#560=PLANE('',#561);
#561=AXIS2_PLACEMENT_3D('',#190,#562,#193);
#562=DIRECTION('',(-0.,0.951026496518,0.309109370483));
#563=ADVANCED_FACE('',(#564),#566,.T.);
#564=FACE_BOUND('',#565,.T.);
#565=EDGE_LOOP('',(#353,#328,#269,#173));
#566=PLANE('',#567);
#567=AXIS2_PLACEMENT_3D('',#568,#13,#14);
#568=CARTESIAN_POINT('',(-2.968091935206,-3.6,7.));
#569=ADVANCED_FACE('',(#570),#575,.F.);
#570=FACE_BOUND('',#571,.F.);
#571=EDGE_LOOP('',(#572,#287,#573,#574));
#572=ORIENTED_EDGE('',*,*,#522,.T.);
#573=ORIENTED_EDGE('',*,*,#206,.F.);
#574=ORIENTED_EDGE('',*,*,#156,.F.);
#575=PLANE('',#576);
#576=AXIS2_PLACEMENT_3D('',#151,#165,#53);
#577=ADVANCED_FACE('',(#578),#594,.F.);
#578=FACE_BOUND('',#579,.F.);
#579=EDGE_LOOP('',(#580,#587,#590,#591));
#580=ORIENTED_EDGE('',*,*,#581,.T.);
#581=EDGE_CURVE('',#582,#584,#586,.T.);
#582=VERTEX_POINT('',#583);
#583=CARTESIAN_POINT('',(3.68,-3.8,2.4));
#584=VERTEX_POINT('',#585);
#585=CARTESIAN_POINT('',(6.48,-3.8,2.4));
#586=LINE('',#583,#34);
#587=ORIENTED_EDGE('',*,*,#588,.T.);
#588=EDGE_CURVE('',#584,#219,#589,.T.);
#589=B_SPLINE_CURVE_WITH_KNOTS('',1,(#585,#220),.UNSPECIFIED.,.F.,.F.,(2,2),(0.,1.),.PIECEWISE_BEZIER_KNOTS.);
#590=ORIENTED_EDGE('',*,*,#218,.T.);
#591=ORIENTED_EDGE('',*,*,#592,.F.);
#592=EDGE_CURVE('',#582,#221,#593,.T.);
#593=B_SPLINE_CURVE_WITH_KNOTS('',1,(#583,#222),.UNSPECIFIED.,.F.,.F.,(2,2),(0.,1.),.PIECEWISE_BEZIER_KNOTS.);
#594=B_SPLINE_SURFACE_WITH_KNOTS('',1,1,((#583,#222),(#585,#220)),.UNSPECIFIED.,.F.,.F.,.F.,(2,2),(2,2),(-3.6,0.),(0.,1.),.PIECEWISE_BEZIER_KNOTS.);
#595=ADVANCED_FACE('',(#596),#608,.F.);
#596=FACE_BOUND('',#597,.F.);
#597=EDGE_LOOP('',(#598,#603,#606,#607));
#598=ORIENTED_EDGE('',*,*,#599,.T.);
#599=EDGE_CURVE('',#584,#600,#602,.T.);
#600=VERTEX_POINT('',#601);
#601=CARTESIAN_POINT('',(6.48,-3.8,5.1));
#602=LINE('',#585,#172);
#603=ORIENTED_EDGE('',*,*,#604,.T.);
#604=EDGE_CURVE('',#600,#226,#605,.T.);
#605=B_SPLINE_CURVE_WITH_KNOTS('',1,(#601,#227),.UNSPECIFIED.,.F.,.F.,(2,2),(0.,1.),.PIECEWISE_BEZIER_KNOTS.);
#606=ORIENTED_EDGE('',*,*,#225,.T.);
#607=ORIENTED_EDGE('',*,*,#588,.F.);
#608=B_SPLINE_SURFACE_WITH_KNOTS('',1,1,((#585,#220),(#601,#227)),.UNSPECIFIED.,.F.,.F.,.F.,(2,2),(2,2),(-5.2,0.),(0.,1.),.PIECEWISE_BEZIER_KNOTS.);
#609=ADVANCED_FACE('',(#610),#622,.F.);
#610=FACE_BOUND('',#611,.F.);
#611=EDGE_LOOP('',(#612,#617,#618,#619));
#612=ORIENTED_EDGE('',*,*,#613,.T.);
#613=EDGE_CURVE('',#614,#582,#616,.T.);
#614=VERTEX_POINT('',#615);
#615=CARTESIAN_POINT('',(3.68,-3.8,5.1));
#616=LINE('',#615,#164);
#617=ORIENTED_EDGE('',*,*,#592,.T.);
#618=ORIENTED_EDGE('',*,*,#235,.T.);
#619=ORIENTED_EDGE('',*,*,#620,.F.);
#620=EDGE_CURVE('',#614,#231,#621,.T.);
#621=B_SPLINE_CURVE_WITH_KNOTS('',1,(#615,#232),.UNSPECIFIED.,.F.,.F.,(2,2),(0.,1.),.PIECEWISE_BEZIER_KNOTS.);
#622=B_SPLINE_SURFACE_WITH_KNOTS('',1,1,((#615,#232),(#583,#222)),.UNSPECIFIED.,.F.,.F.,.F.,(2,2),(2,2),(-5.2,0.),(0.,1.),.PIECEWISE_BEZIER_KNOTS.);
#623=ADVANCED_FACE('',(#624),#632,.F.);
#624=FACE_BOUND('',#625,.F.);
#625=EDGE_LOOP('',(#626,#629,#630,#631));
#626=ORIENTED_EDGE('',*,*,#627,.T.);
#627=EDGE_CURVE('',#600,#614,#628,.T.);
#628=LINE('',#601,#109);
#629=ORIENTED_EDGE('',*,*,#620,.T.);
#630=ORIENTED_EDGE('',*,*,#230,.T.);
#631=ORIENTED_EDGE('',*,*,#604,.F.);
#632=B_SPLINE_SURFACE_WITH_KNOTS('',1,1,((#601,#227),(#615,#232)),.UNSPECIFIED.,.F.,.F.,.F.,(2,2),(2,2),(-3.6,0.),(0.,1.),.PIECEWISE_BEZIER_KNOTS.);
#633=ADVANCED_FACE('',(#634),#650,.F.);
#634=FACE_BOUND('',#635,.F.);
#635=EDGE_LOOP('',(#636,#643,#646,#647));
#636=ORIENTED_EDGE('',*,*,#637,.T.);
#637=EDGE_CURVE('',#638,#640,#642,.T.);
#638=VERTEX_POINT('',#639);
#639=CARTESIAN_POINT('',(-1.4,-3.8,2.4));
#640=VERTEX_POINT('',#641);
#641=CARTESIAN_POINT('',(1.4,-3.8,2.4));
#642=LINE('',#639,#34);
#643=ORIENTED_EDGE('',*,*,#644,.T.);
#644=EDGE_CURVE('',#640,#241,#645,.T.);
#645=B_SPLINE_CURVE_WITH_KNOTS('',1,(#641,#242),.UNSPECIFIED.,.F.,.F.,(2,2),(0.,1.),.PIECEWISE_BEZIER_KNOTS.);
#646=ORIENTED_EDGE('',*,*,#240,.T.);
#647=ORIENTED_EDGE('',*,*,#648,.F.);
#648=EDGE_CURVE('',#638,#243,#649,.T.);
#649=B_SPLINE_CURVE_WITH_KNOTS('',1,(#639,#244),.UNSPECIFIED.,.F.,.F.,(2,2),(0.,1.),.PIECEWISE_BEZIER_KNOTS.);
#650=B_SPLINE_SURFACE_WITH_KNOTS('',1,1,((#639,#244),(#641,#242)),.UNSPECIFIED.,.F.,.F.,.F.,(2,2),(2,2),(-3.6,0.),(0.,1.),.PIECEWISE_BEZIER_KNOTS.);
#651=ADVANCED_FACE('',(#652),#664,.F.);
#652=FACE_BOUND('',#653,.F.);
#653=EDGE_LOOP('',(#654,#659,#662,#663));
#654=ORIENTED_EDGE('',*,*,#655,.T.);
#655=EDGE_CURVE('',#640,#656,#658,.T.);
#656=VERTEX_POINT('',#657);
#657=CARTESIAN_POINT('',(1.4,-3.8,5.1));
#658=LINE('',#641,#172);
#659=ORIENTED_EDGE('',*,*,#660,.T.);
#660=EDGE_CURVE('',#656,#248,#661,.T.);
#661=B_SPLINE_CURVE_WITH_KNOTS('',1,(#657,#249),.UNSPECIFIED.,.F.,.F.,(2,2),(0.,1.),.PIECEWISE_BEZIER_KNOTS.);
#662=ORIENTED_EDGE('',*,*,#247,.T.);
#663=ORIENTED_EDGE('',*,*,#644,.F.);
#664=B_SPLINE_SURFACE_WITH_KNOTS('',1,1,((#641,#242),(#657,#249)),.UNSPECIFIED.,.F.,.F.,.F.,(2,2),(2,2),(-5.2,0.),(0.,1.),.PIECEWISE_BEZIER_KNOTS.);
#665=ADVANCED_FACE('',(#666),#678,.F.);
#666=FACE_BOUND('',#667,.F.);
#667=EDGE_LOOP('',(#668,#673,#674,#675));
#668=ORIENTED_EDGE('',*,*,#669,.T.);
#669=EDGE_CURVE('',#670,#638,#672,.T.);
#670=VERTEX_POINT('',#671);
#671=CARTESIAN_POINT('',(-1.4,-3.8,5.1));
#672=LINE('',#671,#164);
#673=ORIENTED_EDGE('',*,*,#648,.T.);
#674=ORIENTED_EDGE('',*,*,#257,.T.);
#675=ORIENTED_EDGE('',*,*,#676,.F.);
#676=EDGE_CURVE('',#670,#253,#677,.T.);
#677=B_SPLINE_CURVE_WITH_KNOTS('',1,(#671,#254),.UNSPECIFIED.,.F.,.F.,(2,2),(0.,1.),.PIECEWISE_BEZIER_KNOTS.);
#678=B_SPLINE_SURFACE_WITH_KNOTS('',1,1,((#671,#254),(#639,#244)),.UNSPECIFIED.,.F.,.F.,.F.,(2,2),(2,2),(-5.2,0.),(0.,1.),.PIECEWISE_BEZIER_KNOTS.);
#679=ADVANCED_FACE('',(#680),#688,.F.);
#680=FACE_BOUND('',#681,.F.);
#681=EDGE_LOOP('',(#682,#685,#686,#687));
#682=ORIENTED_EDGE('',*,*,#683,.T.);
#683=EDGE_CURVE('',#656,#670,#684,.T.);
#684=LINE('',#657,#109);
#685=ORIENTED_EDGE('',*,*,#676,.T.);
#686=ORIENTED_EDGE('',*,*,#252,.T.);
#687=ORIENTED_EDGE('',*,*,#660,.F.);
#688=B_SPLINE_SURFACE_WITH_KNOTS('',1,1,((#657,#249),(#671,#254)),.UNSPECIFIED.,.F.,.F.,.F.,(2,2),(2,2),(-3.6,0.),(0.,1.),.PIECEWISE_BEZIER_KNOTS.);
#689=ADVANCED_FACE('',(#690),#692,.F.);
#690=FACE_BOUND('',#691,.F.);
#691=EDGE_LOOP('',(#379,#369,#343,#295));
#692=PLANE('',#693);
#693=AXIS2_PLACEMENT_3D('',#694,#13,#14);
#694=CARTESIAN_POINT('',(7.191908064794,-3.6,7.));
#695=ADVANCED_FACE('',(#696),#698,.F.);
#696=FACE_BOUND('',#697,.F.);
#697=EDGE_LOOP('',(#404,#419,#434,#449));
#698=PLANE('',#699);
#699=AXIS2_PLACEMENT_3D('',#700,#13,#14);
#700=CARTESIAN_POINT('',(5.08,0.,-3.5));
#701=ADVANCED_FACE('',(#702),#704,.F.);
#702=FACE_BOUND('',#703,.F.);
#703=EDGE_LOOP('',(#464,#479,#494,#509));
#704=PLANE('',#705);
#705=AXIS2_PLACEMENT_3D('',#706,#13,#14);
#706=CARTESIAN_POINT('',(0.,0.,-3.5));
#707=ADVANCED_FACE('',(#708),#773,.F.);
#708=FACE_BOUND('',#709,.F.);
#709=EDGE_LOOP('',(#710,#715,#716,#717,#724,#730,#737,#743,#747,#753,#757,#761,#765,#771));
#710=ORIENTED_EDGE('',*,*,#711,.F.);
#711=EDGE_CURVE('',#540,#712,#714,.T.);
#712=VERTEX_POINT('',#713);
#713=CARTESIAN_POINT('',(7.08,-0.2,2.4));
#714=LINE('',#541,#164);
#715=ORIENTED_EDGE('',*,*,#539,.F.);
#716=ORIENTED_EDGE('',*,*,#711,.T.);
#717=ORIENTED_EDGE('',*,*,#718,.T.);
#718=EDGE_CURVE('',#712,#719,#721,.T.);
#719=VERTEX_POINT('',#720);
#720=CARTESIAN_POINT('',(6.48,1.228285685709,2.4));
#721=CIRCLE('',#722,2.);
#722=AXIS2_PLACEMENT_3D('',#723,#13,#14);
#723=CARTESIAN_POINT('',(5.08,-0.2,2.4));
#724=ORIENTED_EDGE('',*,*,#725,.T.);
#725=EDGE_CURVE('',#719,#726,#728,.T.);
#726=VERTEX_POINT('',#727);
#727=CARTESIAN_POINT('',(6.48,1.228285685709,5.1));
#728=LINE('',#729,#172);
#729=CARTESIAN_POINT('',(6.48,1.228285685709,13.8));
#730=ORIENTED_EDGE('',*,*,#731,.T.);
#731=EDGE_CURVE('',#726,#732,#734,.T.);
#732=VERTEX_POINT('',#733);
#733=CARTESIAN_POINT('',(3.68,1.228285685708,5.1));
#734=CIRCLE('',#735,2.);
#735=AXIS2_PLACEMENT_3D('',#736,#13,#14);
#736=CARTESIAN_POINT('',(5.08,-0.2,5.1));
#737=ORIENTED_EDGE('',*,*,#738,.F.);
#738=EDGE_CURVE('',#739,#732,#741,.T.);
#739=VERTEX_POINT('',#740);
#740=CARTESIAN_POINT('',(3.68,1.228285685709,2.4));
#741=LINE('',#742,#172);
#742=CARTESIAN_POINT('',(3.68,1.228285685709,13.8));
#743=ORIENTED_EDGE('',*,*,#744,.T.);
#744=EDGE_CURVE('',#739,#745,#721,.T.);
#745=VERTEX_POINT('',#746);
#746=CARTESIAN_POINT('',(3.68,-1.628285685709,2.4));
#747=ORIENTED_EDGE('',*,*,#748,.T.);
#748=EDGE_CURVE('',#745,#749,#751,.T.);
#749=VERTEX_POINT('',#750);
#750=CARTESIAN_POINT('',(3.68,-1.628285685708,5.1));
#751=LINE('',#752,#172);
#752=CARTESIAN_POINT('',(3.68,-1.628285685709,13.8));
#753=ORIENTED_EDGE('',*,*,#754,.T.);
#754=EDGE_CURVE('',#749,#755,#734,.T.);
#755=VERTEX_POINT('',#756);
#756=CARTESIAN_POINT('',(4.208220211292,-2.,5.1));
#757=ORIENTED_EDGE('',*,*,#758,.T.);
#758=EDGE_CURVE('',#755,#759,#734,.T.);
#759=VERTEX_POINT('',#760);
#760=CARTESIAN_POINT('',(5.951779788708,-2.,5.1));
#761=ORIENTED_EDGE('',*,*,#762,.T.);
#762=EDGE_CURVE('',#759,#763,#734,.T.);
#763=VERTEX_POINT('',#764);
#764=CARTESIAN_POINT('',(6.48,-1.628285685709,5.1));
#765=ORIENTED_EDGE('',*,*,#766,.F.);
#766=EDGE_CURVE('',#767,#763,#769,.T.);
#767=VERTEX_POINT('',#768);
#768=CARTESIAN_POINT('',(6.48,-1.628285685709,2.4));
#769=LINE('',#770,#172);
#770=CARTESIAN_POINT('',(6.48,-1.628285685709,13.8));
#771=ORIENTED_EDGE('',*,*,#772,.T.);
#772=EDGE_CURVE('',#767,#712,#721,.T.);
#773=CYLINDRICAL_SURFACE('',#543,2.);
#774=ADVANCED_FACE('',(#775),#840,.F.);
#775=FACE_BOUND('',#776,.F.);
#776=EDGE_LOOP('',(#777,#782,#783,#784,#791,#797,#804,#810,#814,#820,#824,#828,#832,#838));
#777=ORIENTED_EDGE('',*,*,#778,.F.);
#778=EDGE_CURVE('',#549,#779,#781,.T.);
#779=VERTEX_POINT('',#780);
#780=CARTESIAN_POINT('',(2.,-0.2,2.4));
#781=LINE('',#550,#164);
#782=ORIENTED_EDGE('',*,*,#548,.F.);
#783=ORIENTED_EDGE('',*,*,#778,.T.);
#784=ORIENTED_EDGE('',*,*,#785,.T.);
#785=EDGE_CURVE('',#779,#786,#788,.T.);
#786=VERTEX_POINT('',#787);
#787=CARTESIAN_POINT('',(1.4,1.228285685709,2.4));
#788=CIRCLE('',#789,2.);
#789=AXIS2_PLACEMENT_3D('',#790,#13,#14);
#790=CARTESIAN_POINT('',(0.,-0.2,2.4));
#791=ORIENTED_EDGE('',*,*,#792,.T.);
#792=EDGE_CURVE('',#786,#793,#795,.T.);
#793=VERTEX_POINT('',#794);
#794=CARTESIAN_POINT('',(1.4,1.228285685709,5.1));
#795=LINE('',#796,#172);
#796=CARTESIAN_POINT('',(1.4,1.228285685709,13.8));
#797=ORIENTED_EDGE('',*,*,#798,.T.);
#798=EDGE_CURVE('',#793,#799,#801,.T.);
#799=VERTEX_POINT('',#800);
#800=CARTESIAN_POINT('',(-1.4,1.228285685709,5.1));
#801=CIRCLE('',#802,2.);
#802=AXIS2_PLACEMENT_3D('',#803,#13,#14);
#803=CARTESIAN_POINT('',(0.,-0.2,5.1));
#804=ORIENTED_EDGE('',*,*,#805,.F.);
#805=EDGE_CURVE('',#806,#799,#808,.T.);
#806=VERTEX_POINT('',#807);
#807=CARTESIAN_POINT('',(-1.4,1.228285685709,2.4));
#808=LINE('',#809,#172);
#809=CARTESIAN_POINT('',(-1.4,1.228285685709,13.8));
#810=ORIENTED_EDGE('',*,*,#811,.T.);
#811=EDGE_CURVE('',#806,#812,#788,.T.);
#812=VERTEX_POINT('',#813);
#813=CARTESIAN_POINT('',(-1.4,-1.628285685709,2.4));
#814=ORIENTED_EDGE('',*,*,#815,.T.);
#815=EDGE_CURVE('',#812,#816,#818,.T.);
#816=VERTEX_POINT('',#817);
#817=CARTESIAN_POINT('',(-1.4,-1.628285685709,5.1));
#818=LINE('',#819,#172);
#819=CARTESIAN_POINT('',(-1.4,-1.628285685709,13.8));
#820=ORIENTED_EDGE('',*,*,#821,.T.);
#821=EDGE_CURVE('',#816,#822,#801,.T.);
#822=VERTEX_POINT('',#823);
#823=CARTESIAN_POINT('',(-0.871779788708,-2.,5.1));
#824=ORIENTED_EDGE('',*,*,#825,.T.);
#825=EDGE_CURVE('',#822,#826,#801,.T.);
#826=VERTEX_POINT('',#827);
#827=CARTESIAN_POINT('',(0.871779788708,-2.,5.1));
#828=ORIENTED_EDGE('',*,*,#829,.T.);
#829=EDGE_CURVE('',#826,#830,#801,.T.);
#830=VERTEX_POINT('',#831);
#831=CARTESIAN_POINT('',(1.4,-1.628285685709,5.1));
#832=ORIENTED_EDGE('',*,*,#833,.F.);
#833=EDGE_CURVE('',#834,#830,#836,.T.);
#834=VERTEX_POINT('',#835);
#835=CARTESIAN_POINT('',(1.4,-1.628285685709,2.4));
#836=LINE('',#837,#172);
#837=CARTESIAN_POINT('',(1.4,-1.628285685709,13.8));
#838=ORIENTED_EDGE('',*,*,#839,.T.);
#839=EDGE_CURVE('',#834,#779,#788,.T.);
#840=CYLINDRICAL_SURFACE('',#552,2.);
#841=ADVANCED_FACE('',(#842),#860,.F.);
#842=FACE_BOUND('',#843,.F.);
#843=EDGE_LOOP('',(#844,#850,#851,#857));
#844=ORIENTED_EDGE('',*,*,#845,.F.);
#845=EDGE_CURVE('',#584,#846,#848,.T.);
#846=VERTEX_POINT('',#847);
#847=CARTESIAN_POINT('',(6.48,-2.,2.4));
#848=LINE('',#849,#27);
#849=CARTESIAN_POINT('',(6.48,-104.6,2.4));
#850=ORIENTED_EDGE('',*,*,#581,.F.);
#851=ORIENTED_EDGE('',*,*,#852,.T.);
#852=EDGE_CURVE('',#582,#853,#855,.T.);
#853=VERTEX_POINT('',#854);
#854=CARTESIAN_POINT('',(3.68,-2.,2.4));
#855=LINE('',#856,#27);
#856=CARTESIAN_POINT('',(3.68,-104.6,2.4));
#857=ORIENTED_EDGE('',*,*,#858,.T.);
#858=EDGE_CURVE('',#853,#846,#859,.T.);
#859=LINE('',#854,#34);
#860=PLANE('',#861);
#861=AXIS2_PLACEMENT_3D('',#856,#165,#14);
#862=ADVANCED_FACE('',(#863),#876,.F.);
#863=FACE_BOUND('',#864,.F.);
#864=EDGE_LOOP('',(#865,#871,#872,#873));
#865=ORIENTED_EDGE('',*,*,#866,.F.);
#866=EDGE_CURVE('',#600,#867,#869,.T.);
#867=VERTEX_POINT('',#868);
#868=CARTESIAN_POINT('',(6.48,-2.,5.1));
#869=LINE('',#870,#27);
#870=CARTESIAN_POINT('',(6.48,-104.6,5.1));
#871=ORIENTED_EDGE('',*,*,#599,.F.);
#872=ORIENTED_EDGE('',*,*,#845,.T.);
#873=ORIENTED_EDGE('',*,*,#874,.T.);
#874=EDGE_CURVE('',#846,#867,#875,.T.);
#875=LINE('',#847,#172);
#876=PLANE('',#877);
#877=AXIS2_PLACEMENT_3D('',#849,#14,#13);
#878=ADVANCED_FACE('',(#879),#892,.F.);
#879=FACE_BOUND('',#880,.F.);
#880=EDGE_LOOP('',(#881,#882,#883,#889));
#881=ORIENTED_EDGE('',*,*,#852,.F.);
#882=ORIENTED_EDGE('',*,*,#613,.F.);
#883=ORIENTED_EDGE('',*,*,#884,.T.);
#884=EDGE_CURVE('',#614,#885,#887,.T.);
#885=VERTEX_POINT('',#886);
#886=CARTESIAN_POINT('',(3.68,-2.,5.1));
#887=LINE('',#888,#27);
#888=CARTESIAN_POINT('',(3.68,-104.6,5.1));
#889=ORIENTED_EDGE('',*,*,#890,.F.);
#890=EDGE_CURVE('',#853,#885,#891,.T.);
#891=LINE('',#854,#172);
#892=PLANE('',#893);
#893=AXIS2_PLACEMENT_3D('',#888,#110,#165);
#894=ADVANCED_FACE('',(#895),#906,.F.);
#895=FACE_BOUND('',#896,.F.);
#896=EDGE_LOOP('',(#897,#898,#899,#900,#903,#904));
#897=ORIENTED_EDGE('',*,*,#884,.F.);
#898=ORIENTED_EDGE('',*,*,#627,.F.);
#899=ORIENTED_EDGE('',*,*,#866,.T.);
#900=ORIENTED_EDGE('',*,*,#901,.F.);
#901=EDGE_CURVE('',#759,#867,#902,.T.);
#902=LINE('',#886,#34);
#903=ORIENTED_EDGE('',*,*,#758,.F.);
#904=ORIENTED_EDGE('',*,*,#905,.F.);
#905=EDGE_CURVE('',#885,#755,#902,.T.);
#906=PLANE('',#907);
#907=AXIS2_PLACEMENT_3D('',#870,#13,#110);
#908=ADVANCED_FACE('',(#909),#927,.F.);
#909=FACE_BOUND('',#910,.F.);
#910=EDGE_LOOP('',(#911,#917,#918,#924));
#911=ORIENTED_EDGE('',*,*,#912,.F.);
#912=EDGE_CURVE('',#640,#913,#915,.T.);
#913=VERTEX_POINT('',#914);
#914=CARTESIAN_POINT('',(1.4,-2.,2.4));
#915=LINE('',#916,#27);
#916=CARTESIAN_POINT('',(1.4,-104.6,2.4));
#917=ORIENTED_EDGE('',*,*,#637,.F.);
#918=ORIENTED_EDGE('',*,*,#919,.T.);
#919=EDGE_CURVE('',#638,#920,#922,.T.);
#920=VERTEX_POINT('',#921);
#921=CARTESIAN_POINT('',(-1.4,-2.,2.4));
#922=LINE('',#923,#27);
#923=CARTESIAN_POINT('',(-1.4,-104.6,2.4));
#924=ORIENTED_EDGE('',*,*,#925,.T.);
#925=EDGE_CURVE('',#920,#913,#926,.T.);
#926=LINE('',#921,#34);
#927=PLANE('',#928);
#928=AXIS2_PLACEMENT_3D('',#923,#165,#14);
#929=ADVANCED_FACE('',(#930),#943,.F.);
#930=FACE_BOUND('',#931,.F.);
#931=EDGE_LOOP('',(#932,#938,#939,#940));
#932=ORIENTED_EDGE('',*,*,#933,.F.);
#933=EDGE_CURVE('',#656,#934,#936,.T.);
#934=VERTEX_POINT('',#935);
#935=CARTESIAN_POINT('',(1.4,-2.,5.1));
#936=LINE('',#937,#27);
#937=CARTESIAN_POINT('',(1.4,-104.6,5.1));
#938=ORIENTED_EDGE('',*,*,#655,.F.);
#939=ORIENTED_EDGE('',*,*,#912,.T.);
#940=ORIENTED_EDGE('',*,*,#941,.T.);
#941=EDGE_CURVE('',#913,#934,#942,.T.);
#942=LINE('',#914,#172);
#943=PLANE('',#944);
#944=AXIS2_PLACEMENT_3D('',#916,#14,#13);
#945=ADVANCED_FACE('',(#946),#959,.F.);
#946=FACE_BOUND('',#947,.F.);
#947=EDGE_LOOP('',(#948,#949,#950,#956));
#948=ORIENTED_EDGE('',*,*,#919,.F.);
#949=ORIENTED_EDGE('',*,*,#669,.F.);
#950=ORIENTED_EDGE('',*,*,#951,.T.);
#951=EDGE_CURVE('',#670,#952,#954,.T.);
#952=VERTEX_POINT('',#953);
#953=CARTESIAN_POINT('',(-1.4,-2.,5.1));
#954=LINE('',#955,#27);
#955=CARTESIAN_POINT('',(-1.4,-104.6,5.1));
#956=ORIENTED_EDGE('',*,*,#957,.F.);
#957=EDGE_CURVE('',#920,#952,#958,.T.);
#958=LINE('',#921,#172);
#959=PLANE('',#960);
#960=AXIS2_PLACEMENT_3D('',#955,#110,#165);
#961=ADVANCED_FACE('',(#962),#973,.F.);
#962=FACE_BOUND('',#963,.F.);
#963=EDGE_LOOP('',(#964,#965,#966,#967,#970,#971));
#964=ORIENTED_EDGE('',*,*,#951,.F.);
#965=ORIENTED_EDGE('',*,*,#683,.F.);
#966=ORIENTED_EDGE('',*,*,#933,.T.);
#967=ORIENTED_EDGE('',*,*,#968,.F.);
#968=EDGE_CURVE('',#826,#934,#969,.T.);
#969=LINE('',#953,#34);
#970=ORIENTED_EDGE('',*,*,#825,.F.);
#971=ORIENTED_EDGE('',*,*,#972,.F.);
#972=EDGE_CURVE('',#952,#822,#969,.T.);
#973=PLANE('',#974);
#974=AXIS2_PLACEMENT_3D('',#937,#13,#110);
#975=ADVANCED_FACE('',(#976),#860,.F.);
#976=FACE_BOUND('',#977,.F.);
#977=EDGE_LOOP('',(#978,#979,#982));
#978=ORIENTED_EDGE('',*,*,#772,.F.);
#979=ORIENTED_EDGE('',*,*,#980,.T.);
#980=EDGE_CURVE('',#767,#719,#981,.T.);
#981=LINE('',#847,#27);
#982=ORIENTED_EDGE('',*,*,#718,.F.);
#983=ADVANCED_FACE('',(#984),#1000,.F.);
#984=FACE_BOUND('',#985,.F.);
#985=EDGE_LOOP('',(#986,#987,#988,#993,#997,#999));
#986=ORIENTED_EDGE('',*,*,#980,.F.);
#987=ORIENTED_EDGE('',*,*,#766,.T.);
#988=ORIENTED_EDGE('',*,*,#989,.T.);
#989=EDGE_CURVE('',#763,#990,#992,.T.);
#990=VERTEX_POINT('',#991);
#991=CARTESIAN_POINT('',(6.48,-1.484523257867,5.1));
#992=LINE('',#868,#27);
#993=ORIENTED_EDGE('',*,*,#994,.T.);
#994=EDGE_CURVE('',#990,#995,#992,.T.);
#995=VERTEX_POINT('',#996);
#996=CARTESIAN_POINT('',(6.48,1.084523257867,5.1));
#997=ORIENTED_EDGE('',*,*,#998,.T.);
#998=EDGE_CURVE('',#995,#726,#992,.T.);
#999=ORIENTED_EDGE('',*,*,#725,.F.);
#1000=PLANE('',#1001);
#1001=AXIS2_PLACEMENT_3D('',#847,#110,#28);
#1002=ADVANCED_FACE('',(#1003),#1012,.T.);
#1003=FACE_BOUND('',#1004,.T.);
#1004=EDGE_LOOP('',(#1005,#1010,#761,#988));
#1005=ORIENTED_EDGE('',*,*,#1006,.F.);
#1006=EDGE_CURVE('',#1007,#990,#1009,.T.);
#1007=VERTEX_POINT('',#1008);
#1008=CARTESIAN_POINT('',(5.68827625303,-2.,5.1));
#1009=CIRCLE('',#735,1.9);
#1010=ORIENTED_EDGE('',*,*,#1011,.T.);
#1011=EDGE_CURVE('',#1007,#759,#902,.T.);
#1012=PLANE('',#1013);
#1013=AXIS2_PLACEMENT_3D('',#1014,#13,#14);
#1014=CARTESIAN_POINT('',(5.08,0.,5.1));
#1015=ADVANCED_FACE('',(#1016),#1012,.T.);
#1016=FACE_BOUND('',#1017,.T.);
#1017=EDGE_LOOP('',(#1018,#1024,#753,#1028));
#1018=ORIENTED_EDGE('',*,*,#1019,.F.);
#1019=EDGE_CURVE('',#1020,#1022,#1009,.T.);
#1020=VERTEX_POINT('',#1021);
#1021=CARTESIAN_POINT('',(3.68,-1.484523257866,5.1));
#1022=VERTEX_POINT('',#1023);
#1023=CARTESIAN_POINT('',(4.47172374697,-2.,5.1));
#1024=ORIENTED_EDGE('',*,*,#1025,.T.);
#1025=EDGE_CURVE('',#1020,#749,#1026,.T.);
#1026=LINE('',#1027,#52);
#1027=CARTESIAN_POINT('',(3.68,2.,5.1));
#1028=ORIENTED_EDGE('',*,*,#1029,.T.);
#1029=EDGE_CURVE('',#755,#1022,#902,.T.);
#1030=ADVANCED_FACE('',(#1031),#1045,.F.);
#1031=FACE_BOUND('',#1032,.F.);
#1032=EDGE_LOOP('',(#1033,#1034,#1038,#1024,#1040,#1041));
#1033=ORIENTED_EDGE('',*,*,#738,.T.);
#1034=ORIENTED_EDGE('',*,*,#1035,.T.);
#1035=EDGE_CURVE('',#732,#1036,#1026,.T.);
#1036=VERTEX_POINT('',#1037);
#1037=CARTESIAN_POINT('',(3.68,1.084523257866,5.1));
#1038=ORIENTED_EDGE('',*,*,#1039,.T.);
#1039=EDGE_CURVE('',#1036,#1020,#1026,.T.);
#1040=ORIENTED_EDGE('',*,*,#748,.F.);
#1041=ORIENTED_EDGE('',*,*,#1042,.F.);
#1042=EDGE_CURVE('',#739,#745,#1043,.T.);
#1043=LINE('',#1044,#52);
#1044=CARTESIAN_POINT('',(3.68,2.,2.4));
#1045=PLANE('',#1046);
#1046=AXIS2_PLACEMENT_3D('',#1044,#14,#53);
#1047=ADVANCED_FACE('',(#1048),#860,.F.);
#1048=FACE_BOUND('',#1049,.F.);
#1049=EDGE_LOOP('',(#1050,#1051));
#1050=ORIENTED_EDGE('',*,*,#1042,.T.);
#1051=ORIENTED_EDGE('',*,*,#744,.F.);
#1052=ADVANCED_FACE('',(#1053),#1012,.T.);
#1053=FACE_BOUND('',#1054,.T.);
#1054=EDGE_LOOP('',(#730,#1034,#1055,#997));
#1055=ORIENTED_EDGE('',*,*,#1056,.F.);
#1056=EDGE_CURVE('',#995,#1036,#1009,.T.);
#1057=ADVANCED_FACE('',(#1058),#927,.F.);
#1058=FACE_BOUND('',#1059,.F.);
#1059=EDGE_LOOP('',(#1060,#1061,#1064));
#1060=ORIENTED_EDGE('',*,*,#839,.F.);
#1061=ORIENTED_EDGE('',*,*,#1062,.T.);
#1062=EDGE_CURVE('',#834,#786,#1063,.T.);
#1063=LINE('',#914,#27);
#1064=ORIENTED_EDGE('',*,*,#785,.F.);
#1065=ADVANCED_FACE('',(#1066),#1082,.F.);
#1066=FACE_BOUND('',#1067,.F.);
#1067=EDGE_LOOP('',(#1068,#1069,#1070,#1075,#1079,#1081));
#1068=ORIENTED_EDGE('',*,*,#1062,.F.);
#1069=ORIENTED_EDGE('',*,*,#833,.T.);
#1070=ORIENTED_EDGE('',*,*,#1071,.T.);
#1071=EDGE_CURVE('',#830,#1072,#1074,.T.);
#1072=VERTEX_POINT('',#1073);
#1073=CARTESIAN_POINT('',(1.4,-1.484523257867,5.1));
#1074=LINE('',#935,#27);
#1075=ORIENTED_EDGE('',*,*,#1076,.T.);
#1076=EDGE_CURVE('',#1072,#1077,#1074,.T.);
#1077=VERTEX_POINT('',#1078);
#1078=CARTESIAN_POINT('',(1.4,1.084523257867,5.1));
#1079=ORIENTED_EDGE('',*,*,#1080,.T.);
#1080=EDGE_CURVE('',#1077,#793,#1074,.T.);
#1081=ORIENTED_EDGE('',*,*,#792,.F.);
#1082=PLANE('',#1083);
#1083=AXIS2_PLACEMENT_3D('',#914,#110,#28);
#1084=ADVANCED_FACE('',(#1085),#1094,.T.);
#1085=FACE_BOUND('',#1086,.T.);
#1086=EDGE_LOOP('',(#1087,#1092,#828,#1070));
#1087=ORIENTED_EDGE('',*,*,#1088,.F.);
#1088=EDGE_CURVE('',#1089,#1072,#1091,.T.);
#1089=VERTEX_POINT('',#1090);
#1090=CARTESIAN_POINT('',(0.60827625303,-2.,5.1));
#1091=CIRCLE('',#802,1.9);
#1092=ORIENTED_EDGE('',*,*,#1093,.T.);
#1093=EDGE_CURVE('',#1089,#826,#969,.T.);
#1094=PLANE('',#1095);
#1095=AXIS2_PLACEMENT_3D('',#1096,#13,#14);
#1096=CARTESIAN_POINT('',(0.,0.,5.1));
#1097=ADVANCED_FACE('',(#1098),#1094,.T.);
#1098=FACE_BOUND('',#1099,.T.);
#1099=EDGE_LOOP('',(#1100,#1106,#820,#1110));
#1100=ORIENTED_EDGE('',*,*,#1101,.F.);
#1101=EDGE_CURVE('',#1102,#1104,#1091,.T.);
#1102=VERTEX_POINT('',#1103);
#1103=CARTESIAN_POINT('',(-1.4,-1.484523257866,5.1));
#1104=VERTEX_POINT('',#1105);
#1105=CARTESIAN_POINT('',(-0.60827625303,-2.,5.1));
#1106=ORIENTED_EDGE('',*,*,#1107,.T.);
#1107=EDGE_CURVE('',#1102,#816,#1108,.T.);
#1108=LINE('',#1109,#52);
#1109=CARTESIAN_POINT('',(-1.4,2.,5.1));
#1110=ORIENTED_EDGE('',*,*,#1111,.T.);
#1111=EDGE_CURVE('',#822,#1104,#969,.T.);
#1112=ADVANCED_FACE('',(#1113),#1127,.F.);
#1113=FACE_BOUND('',#1114,.F.);
#1114=EDGE_LOOP('',(#1115,#1116,#1120,#1106,#1122,#1123));
#1115=ORIENTED_EDGE('',*,*,#805,.T.);
#1116=ORIENTED_EDGE('',*,*,#1117,.T.);
#1117=EDGE_CURVE('',#799,#1118,#1108,.T.);
#1118=VERTEX_POINT('',#1119);
#1119=CARTESIAN_POINT('',(-1.4,1.084523257866,5.1));
#1120=ORIENTED_EDGE('',*,*,#1121,.T.);
#1121=EDGE_CURVE('',#1118,#1102,#1108,.T.);
#1122=ORIENTED_EDGE('',*,*,#815,.F.);
#1123=ORIENTED_EDGE('',*,*,#1124,.F.);
#1124=EDGE_CURVE('',#806,#812,#1125,.T.);
#1125=LINE('',#1126,#52);
#1126=CARTESIAN_POINT('',(-1.4,2.,2.4));
#1127=PLANE('',#1128);
#1128=AXIS2_PLACEMENT_3D('',#1126,#14,#53);
#1129=ADVANCED_FACE('',(#1130),#927,.F.);
#1130=FACE_BOUND('',#1131,.F.);
#1131=EDGE_LOOP('',(#1132,#1133));
#1132=ORIENTED_EDGE('',*,*,#1124,.T.);
#1133=ORIENTED_EDGE('',*,*,#811,.F.);
#1134=ADVANCED_FACE('',(#1135),#1094,.T.);
#1135=FACE_BOUND('',#1136,.T.);
#1136=EDGE_LOOP('',(#797,#1116,#1137,#1079));
#1137=ORIENTED_EDGE('',*,*,#1138,.F.);
#1138=EDGE_CURVE('',#1077,#1118,#1091,.T.);
#1139=ADVANCED_FACE('',(#1140,#1149),#1171,.F.);
#1140=FACE_BOUND('',#1141,.F.);
#1141=EDGE_LOOP('',(#1142,#1143,#1028,#1144,#1010,#1146,#1147,#1148));
#1142=ORIENTED_EDGE('',*,*,#890,.T.);
#1143=ORIENTED_EDGE('',*,*,#905,.T.);
#1144=ORIENTED_EDGE('',*,*,#1145,.T.);
#1145=EDGE_CURVE('',#1022,#1007,#902,.T.);
#1146=ORIENTED_EDGE('',*,*,#901,.T.);
#1147=ORIENTED_EDGE('',*,*,#874,.F.);
#1148=ORIENTED_EDGE('',*,*,#858,.F.);
#1149=FACE_BOUND('',#1150,.F.);
#1150=EDGE_LOOP('',(#1151,#1158,#1163,#1168));
#1151=ORIENTED_EDGE('',*,*,#1152,.T.);
#1152=EDGE_CURVE('',#1153,#1155,#1157,.T.);
#1153=VERTEX_POINT('',#1154);
#1154=CARTESIAN_POINT('',(3.83,-2.,5.));
#1155=VERTEX_POINT('',#1156);
#1156=CARTESIAN_POINT('',(3.83,-2.,2.5));
#1157=LINE('',#1154,#164);
#1158=ORIENTED_EDGE('',*,*,#1159,.T.);
#1159=EDGE_CURVE('',#1155,#1160,#1162,.T.);
#1160=VERTEX_POINT('',#1161);
#1161=CARTESIAN_POINT('',(6.33,-2.,2.5));
#1162=LINE('',#1156,#34);
#1163=ORIENTED_EDGE('',*,*,#1164,.T.);
#1164=EDGE_CURVE('',#1160,#1165,#1167,.T.);
#1165=VERTEX_POINT('',#1166);
#1166=CARTESIAN_POINT('',(6.33,-2.,5.));
#1167=LINE('',#1161,#172);
#1168=ORIENTED_EDGE('',*,*,#1169,.T.);
#1169=EDGE_CURVE('',#1165,#1153,#1170,.T.);
#1170=LINE('',#1166,#109);
#1171=PLANE('',#1172);
#1172=AXIS2_PLACEMENT_3D('',#854,#28,#14);
#1173=ADVANCED_FACE('',(#1174,#1183),#1205,.F.);
#1174=FACE_BOUND('',#1175,.F.);
#1175=EDGE_LOOP('',(#1176,#1177,#1110,#1178,#1092,#1180,#1181,#1182));
#1176=ORIENTED_EDGE('',*,*,#957,.T.);
#1177=ORIENTED_EDGE('',*,*,#972,.T.);
#1178=ORIENTED_EDGE('',*,*,#1179,.T.);
#1179=EDGE_CURVE('',#1104,#1089,#969,.T.);
#1180=ORIENTED_EDGE('',*,*,#968,.T.);
#1181=ORIENTED_EDGE('',*,*,#941,.F.);
#1182=ORIENTED_EDGE('',*,*,#925,.F.);
#1183=FACE_BOUND('',#1184,.F.);
#1184=EDGE_LOOP('',(#1185,#1192,#1197,#1202));
#1185=ORIENTED_EDGE('',*,*,#1186,.T.);
#1186=EDGE_CURVE('',#1187,#1189,#1191,.T.);
#1187=VERTEX_POINT('',#1188);
#1188=CARTESIAN_POINT('',(-1.25,-2.,5.));
#1189=VERTEX_POINT('',#1190);
#1190=CARTESIAN_POINT('',(-1.25,-2.,2.5));
#1191=LINE('',#1188,#164);
#1192=ORIENTED_EDGE('',*,*,#1193,.T.);
#1193=EDGE_CURVE('',#1189,#1194,#1196,.T.);
#1194=VERTEX_POINT('',#1195);
#1195=CARTESIAN_POINT('',(1.25,-2.,2.5));
#1196=LINE('',#1190,#34);
#1197=ORIENTED_EDGE('',*,*,#1198,.T.);
#1198=EDGE_CURVE('',#1194,#1199,#1201,.T.);
#1199=VERTEX_POINT('',#1200);
#1200=CARTESIAN_POINT('',(1.25,-2.,5.));
#1201=LINE('',#1195,#172);
#1202=ORIENTED_EDGE('',*,*,#1203,.T.);
#1203=EDGE_CURVE('',#1199,#1187,#1204,.T.);
#1204=LINE('',#1200,#109);
#1205=PLANE('',#1206);
#1206=AXIS2_PLACEMENT_3D('',#921,#28,#14);
#1207=ADVANCED_FACE('',(#1208),#1217,.F.);
#1208=FACE_BOUND('',#1209,.F.);
#1209=EDGE_LOOP('',(#1210,#1214,#1216));
#1210=ORIENTED_EDGE('',*,*,#1211,.T.);
#1211=EDGE_CURVE('',#990,#1212,#1009,.T.);
#1212=VERTEX_POINT('',#1213);
#1213=CARTESIAN_POINT('',(6.98,-0.2,5.1));
#1214=ORIENTED_EDGE('',*,*,#1215,.T.);
#1215=EDGE_CURVE('',#1212,#995,#1009,.T.);
#1216=ORIENTED_EDGE('',*,*,#994,.F.);
#1217=PLANE('',#735);
#1218=ADVANCED_FACE('',(#1219),#1281,.T.);
#1219=FACE_BOUND('',#1220,.F.);
#1220=EDGE_LOOP('',(#1221,#1226,#1005,#1227,#1018,#1229,#1055,#1231,#1232,#1233,#1240,#1246,#1253,#1259,#1263,#1269,#1273,#1279));
#1221=ORIENTED_EDGE('',*,*,#1222,.F.);
#1222=EDGE_CURVE('',#1212,#1223,#1225,.T.);
#1223=VERTEX_POINT('',#1224);
#1224=CARTESIAN_POINT('',(6.98,-0.2,13.6));
#1225=LINE('',#1213,#172);
#1226=ORIENTED_EDGE('',*,*,#1211,.F.);
#1227=ORIENTED_EDGE('',*,*,#1228,.F.);
#1228=EDGE_CURVE('',#1022,#1007,#1009,.T.);
#1229=ORIENTED_EDGE('',*,*,#1230,.F.);
#1230=EDGE_CURVE('',#1036,#1020,#1009,.T.);
#1231=ORIENTED_EDGE('',*,*,#1215,.F.);
#1232=ORIENTED_EDGE('',*,*,#1222,.T.);
#1233=ORIENTED_EDGE('',*,*,#1234,.T.);
#1234=EDGE_CURVE('',#1223,#1235,#1237,.T.);
#1235=VERTEX_POINT('',#1236);
#1236=CARTESIAN_POINT('',(5.43,1.667484939698,13.6));
#1237=CIRCLE('',#1238,1.9);
#1238=AXIS2_PLACEMENT_3D('',#1239,#13,#14);
#1239=CARTESIAN_POINT('',(5.08,-0.2,13.6));
#1240=ORIENTED_EDGE('',*,*,#1241,.T.);
#1241=EDGE_CURVE('',#1235,#1242,#1244,.T.);
#1242=VERTEX_POINT('',#1243);
#1243=CARTESIAN_POINT('',(5.43,1.667484939698,12.9));
#1244=LINE('',#1245,#164);
#1245=CARTESIAN_POINT('',(5.43,1.667484939698,5.1));
#1246=ORIENTED_EDGE('',*,*,#1247,.F.);
#1247=EDGE_CURVE('',#1248,#1242,#1250,.T.);
#1248=VERTEX_POINT('',#1249);
#1249=CARTESIAN_POINT('',(4.73,1.667484939698,12.9));
#1250=CIRCLE('',#1251,1.9);
#1251=AXIS2_PLACEMENT_3D('',#1252,#165,#14);
#1252=CARTESIAN_POINT('',(5.08,-0.2,12.9));
#1253=ORIENTED_EDGE('',*,*,#1254,.F.);
#1254=EDGE_CURVE('',#1255,#1248,#1257,.T.);
#1255=VERTEX_POINT('',#1256);
#1256=CARTESIAN_POINT('',(4.73,1.667484939698,13.6));
#1257=LINE('',#1258,#164);
#1258=CARTESIAN_POINT('',(4.73,1.667484939698,5.1));
#1259=ORIENTED_EDGE('',*,*,#1260,.T.);
#1260=EDGE_CURVE('',#1255,#1261,#1237,.T.);
#1261=VERTEX_POINT('',#1262);
#1262=CARTESIAN_POINT('',(4.73,-2.067484939698,13.6));
#1263=ORIENTED_EDGE('',*,*,#1264,.T.);
#1264=EDGE_CURVE('',#1261,#1265,#1267,.T.);
#1265=VERTEX_POINT('',#1266);
#1266=CARTESIAN_POINT('',(4.73,-2.067484939698,12.9));
#1267=LINE('',#1268,#164);
#1268=CARTESIAN_POINT('',(4.73,-2.067484939698,5.1));
#1269=ORIENTED_EDGE('',*,*,#1270,.F.);
#1270=EDGE_CURVE('',#1271,#1265,#1250,.T.);
#1271=VERTEX_POINT('',#1272);
#1272=CARTESIAN_POINT('',(5.43,-2.067484939698,12.9));
#1273=ORIENTED_EDGE('',*,*,#1274,.F.);
#1274=EDGE_CURVE('',#1275,#1271,#1277,.T.);
#1275=VERTEX_POINT('',#1276);
#1276=CARTESIAN_POINT('',(5.43,-2.067484939698,13.6));
#1277=LINE('',#1278,#164);
#1278=CARTESIAN_POINT('',(5.43,-2.067484939698,5.1));
#1279=ORIENTED_EDGE('',*,*,#1280,.T.);
#1280=EDGE_CURVE('',#1275,#1223,#1237,.T.);
#1281=CYLINDRICAL_SURFACE('',#1282,1.9);
#1282=AXIS2_PLACEMENT_3D('',#736,#165,#14);
#1283=ADVANCED_FACE('',(#1284),#1217,.F.);
#1284=FACE_BOUND('',#1285,.F.);
#1285=EDGE_LOOP('',(#1286,#1287));
#1286=ORIENTED_EDGE('',*,*,#1039,.F.);
#1287=ORIENTED_EDGE('',*,*,#1230,.T.);
#1288=ADVANCED_FACE('',(#1289),#1298,.F.);
#1289=FACE_BOUND('',#1290,.F.);
#1290=EDGE_LOOP('',(#1291,#1295,#1297));
#1291=ORIENTED_EDGE('',*,*,#1292,.T.);
#1292=EDGE_CURVE('',#1072,#1293,#1091,.T.);
#1293=VERTEX_POINT('',#1294);
#1294=CARTESIAN_POINT('',(1.9,-0.2,5.1));
#1295=ORIENTED_EDGE('',*,*,#1296,.T.);
#1296=EDGE_CURVE('',#1293,#1077,#1091,.T.);
#1297=ORIENTED_EDGE('',*,*,#1076,.F.);
#1298=PLANE('',#802);
#1299=ADVANCED_FACE('',(#1300),#1362,.T.);
#1300=FACE_BOUND('',#1301,.F.);
#1301=EDGE_LOOP('',(#1302,#1307,#1087,#1308,#1100,#1310,#1137,#1312,#1313,#1314,#1321,#1327,#1334,#1340,#1344,#1350,#1354,#1360));
#1302=ORIENTED_EDGE('',*,*,#1303,.F.);
#1303=EDGE_CURVE('',#1293,#1304,#1306,.T.);
#1304=VERTEX_POINT('',#1305);
#1305=CARTESIAN_POINT('',(1.9,-0.2,13.6));
#1306=LINE('',#1294,#172);
#1307=ORIENTED_EDGE('',*,*,#1292,.F.);
#1308=ORIENTED_EDGE('',*,*,#1309,.F.);
#1309=EDGE_CURVE('',#1104,#1089,#1091,.T.);
#1310=ORIENTED_EDGE('',*,*,#1311,.F.);
#1311=EDGE_CURVE('',#1118,#1102,#1091,.T.);
#1312=ORIENTED_EDGE('',*,*,#1296,.F.);
#1313=ORIENTED_EDGE('',*,*,#1303,.T.);
#1314=ORIENTED_EDGE('',*,*,#1315,.T.);
#1315=EDGE_CURVE('',#1304,#1316,#1318,.T.);
#1316=VERTEX_POINT('',#1317);
#1317=CARTESIAN_POINT('',(0.35,1.667484939698,13.6));
#1318=CIRCLE('',#1319,1.9);
#1319=AXIS2_PLACEMENT_3D('',#1320,#13,#14);
#1320=CARTESIAN_POINT('',(0.,-0.2,13.6));
#1321=ORIENTED_EDGE('',*,*,#1322,.T.);
#1322=EDGE_CURVE('',#1316,#1323,#1325,.T.);
#1323=VERTEX_POINT('',#1324);
#1324=CARTESIAN_POINT('',(0.35,1.667484939698,12.9));
#1325=LINE('',#1326,#164);
#1326=CARTESIAN_POINT('',(0.35,1.667484939698,5.1));
#1327=ORIENTED_EDGE('',*,*,#1328,.F.);
#1328=EDGE_CURVE('',#1329,#1323,#1331,.T.);
#1329=VERTEX_POINT('',#1330);
#1330=CARTESIAN_POINT('',(-0.35,1.667484939698,12.9));
#1331=CIRCLE('',#1332,1.9);
#1332=AXIS2_PLACEMENT_3D('',#1333,#165,#14);
#1333=CARTESIAN_POINT('',(0.,-0.2,12.9));
#1334=ORIENTED_EDGE('',*,*,#1335,.F.);
#1335=EDGE_CURVE('',#1336,#1329,#1338,.T.);
#1336=VERTEX_POINT('',#1337);
#1337=CARTESIAN_POINT('',(-0.35,1.667484939698,13.6));
#1338=LINE('',#1339,#164);
#1339=CARTESIAN_POINT('',(-0.35,1.667484939698,5.1));
#1340=ORIENTED_EDGE('',*,*,#1341,.T.);
#1341=EDGE_CURVE('',#1336,#1342,#1318,.T.);
#1342=VERTEX_POINT('',#1343);
#1343=CARTESIAN_POINT('',(-0.35,-2.067484939698,13.6));
#1344=ORIENTED_EDGE('',*,*,#1345,.T.);
#1345=EDGE_CURVE('',#1342,#1346,#1348,.T.);
#1346=VERTEX_POINT('',#1347);
#1347=CARTESIAN_POINT('',(-0.35,-2.067484939698,12.9));
#1348=LINE('',#1349,#164);
#1349=CARTESIAN_POINT('',(-0.35,-2.067484939698,5.1));
#1350=ORIENTED_EDGE('',*,*,#1351,.F.);
#1351=EDGE_CURVE('',#1352,#1346,#1331,.T.);
#1352=VERTEX_POINT('',#1353);
#1353=CARTESIAN_POINT('',(0.35,-2.067484939698,12.9));
#1354=ORIENTED_EDGE('',*,*,#1355,.F.);
#1355=EDGE_CURVE('',#1356,#1352,#1358,.T.);
#1356=VERTEX_POINT('',#1357);
#1357=CARTESIAN_POINT('',(0.35,-2.067484939698,13.6));
#1358=LINE('',#1359,#164);
#1359=CARTESIAN_POINT('',(0.35,-2.067484939698,5.1));
#1360=ORIENTED_EDGE('',*,*,#1361,.T.);
#1361=EDGE_CURVE('',#1356,#1304,#1318,.T.);
#1362=CYLINDRICAL_SURFACE('',#1363,1.9);
#1363=AXIS2_PLACEMENT_3D('',#803,#165,#14);
#1364=ADVANCED_FACE('',(#1365),#1298,.F.);
#1365=FACE_BOUND('',#1366,.F.);
#1366=EDGE_LOOP('',(#1367,#1368));
#1367=ORIENTED_EDGE('',*,*,#1121,.F.);
#1368=ORIENTED_EDGE('',*,*,#1311,.T.);
#1369=ADVANCED_FACE('',(#1370),#1217,.F.);
#1370=FACE_BOUND('',#1371,.F.);
#1371=EDGE_LOOP('',(#1372,#1373));
#1372=ORIENTED_EDGE('',*,*,#1228,.T.);
#1373=ORIENTED_EDGE('',*,*,#1145,.F.);
#1374=ADVANCED_FACE('',(#1375),#1390,.T.);
#1375=FACE_BOUND('',#1376,.T.);
#1376=EDGE_LOOP('',(#1377,#1151,#1382,#1387));
#1377=ORIENTED_EDGE('',*,*,#1378,.T.);
#1378=EDGE_CURVE('',#1379,#1153,#1381,.T.);
#1379=VERTEX_POINT('',#1380);
#1380=CARTESIAN_POINT('',(3.83,2.,5.));
#1381=LINE('',#1380,#52);
#1382=ORIENTED_EDGE('',*,*,#1383,.F.);
#1383=EDGE_CURVE('',#1384,#1155,#1386,.T.);
#1384=VERTEX_POINT('',#1385);
#1385=CARTESIAN_POINT('',(3.83,2.,2.5));
#1386=LINE('',#1385,#52);
#1387=ORIENTED_EDGE('',*,*,#1388,.F.);
#1388=EDGE_CURVE('',#1379,#1384,#1389,.T.);
#1389=LINE('',#1380,#164);
#1390=PLANE('',#1391);
#1391=AXIS2_PLACEMENT_3D('',#1380,#14,#165);
#1392=ADVANCED_FACE('',(#1393),#1404,.T.);
#1393=FACE_BOUND('',#1394,.T.);
#1394=EDGE_LOOP('',(#1395,#1168,#1400,#1401));
#1395=ORIENTED_EDGE('',*,*,#1396,.T.);
#1396=EDGE_CURVE('',#1397,#1165,#1399,.T.);
#1397=VERTEX_POINT('',#1398);
#1398=CARTESIAN_POINT('',(6.33,2.,5.));
#1399=LINE('',#1398,#52);
#1400=ORIENTED_EDGE('',*,*,#1378,.F.);
#1401=ORIENTED_EDGE('',*,*,#1402,.F.);
#1402=EDGE_CURVE('',#1397,#1379,#1403,.T.);
#1403=LINE('',#1398,#109);
#1404=PLANE('',#1405);
#1405=AXIS2_PLACEMENT_3D('',#1398,#165,#110);
#1406=ADVANCED_FACE('',(#1407),#1418,.T.);
#1407=FACE_BOUND('',#1408,.T.);
#1408=EDGE_LOOP('',(#1409,#1163,#1414,#1415));
#1409=ORIENTED_EDGE('',*,*,#1410,.T.);
#1410=EDGE_CURVE('',#1411,#1160,#1413,.T.);
#1411=VERTEX_POINT('',#1412);
#1412=CARTESIAN_POINT('',(6.33,2.,2.5));
#1413=LINE('',#1412,#52);
#1414=ORIENTED_EDGE('',*,*,#1396,.F.);
#1415=ORIENTED_EDGE('',*,*,#1416,.F.);
#1416=EDGE_CURVE('',#1411,#1397,#1417,.T.);
#1417=LINE('',#1412,#172);
#1418=PLANE('',#1419);
#1419=AXIS2_PLACEMENT_3D('',#1412,#110,#13);
#1420=ADVANCED_FACE('',(#1421),#1428,.T.);
#1421=FACE_BOUND('',#1422,.T.);
#1422=EDGE_LOOP('',(#1423,#1158,#1424,#1425));
#1423=ORIENTED_EDGE('',*,*,#1383,.T.);
#1424=ORIENTED_EDGE('',*,*,#1410,.F.);
#1425=ORIENTED_EDGE('',*,*,#1426,.F.);
#1426=EDGE_CURVE('',#1384,#1411,#1427,.T.);
#1427=LINE('',#1385,#34);
#1428=PLANE('',#1429);
#1429=AXIS2_PLACEMENT_3D('',#1385,#13,#14);
#1430=ADVANCED_FACE('',(#1431),#1298,.F.);
#1431=FACE_BOUND('',#1432,.F.);
#1432=EDGE_LOOP('',(#1433,#1434));
#1433=ORIENTED_EDGE('',*,*,#1309,.T.);
#1434=ORIENTED_EDGE('',*,*,#1179,.F.);
#1435=ADVANCED_FACE('',(#1436),#1451,.T.);
#1436=FACE_BOUND('',#1437,.T.);
#1437=EDGE_LOOP('',(#1438,#1185,#1443,#1448));
#1438=ORIENTED_EDGE('',*,*,#1439,.T.);
#1439=EDGE_CURVE('',#1440,#1187,#1442,.T.);
#1440=VERTEX_POINT('',#1441);
#1441=CARTESIAN_POINT('',(-1.25,2.,5.));
#1442=LINE('',#1441,#52);
#1443=ORIENTED_EDGE('',*,*,#1444,.F.);
#1444=EDGE_CURVE('',#1445,#1189,#1447,.T.);
#1445=VERTEX_POINT('',#1446);
#1446=CARTESIAN_POINT('',(-1.25,2.,2.5));
#1447=LINE('',#1446,#52);
#1448=ORIENTED_EDGE('',*,*,#1449,.F.);
#1449=EDGE_CURVE('',#1440,#1445,#1450,.T.);
#1450=LINE('',#1441,#164);
#1451=PLANE('',#1452);
#1452=AXIS2_PLACEMENT_3D('',#1441,#14,#165);
#1453=ADVANCED_FACE('',(#1454),#1465,.T.);
#1454=FACE_BOUND('',#1455,.T.);
#1455=EDGE_LOOP('',(#1456,#1202,#1461,#1462));
#1456=ORIENTED_EDGE('',*,*,#1457,.T.);
#1457=EDGE_CURVE('',#1458,#1199,#1460,.T.);
#1458=VERTEX_POINT('',#1459);
#1459=CARTESIAN_POINT('',(1.25,2.,5.));
#1460=LINE('',#1459,#52);
#1461=ORIENTED_EDGE('',*,*,#1439,.F.);
#1462=ORIENTED_EDGE('',*,*,#1463,.F.);
#1463=EDGE_CURVE('',#1458,#1440,#1464,.T.);
#1464=LINE('',#1459,#109);
#1465=PLANE('',#1466);
#1466=AXIS2_PLACEMENT_3D('',#1459,#165,#110);
#1467=ADVANCED_FACE('',(#1468),#1479,.T.);
#1468=FACE_BOUND('',#1469,.T.);
#1469=EDGE_LOOP('',(#1470,#1197,#1475,#1476));
#1470=ORIENTED_EDGE('',*,*,#1471,.T.);
#1471=EDGE_CURVE('',#1472,#1194,#1474,.T.);
#1472=VERTEX_POINT('',#1473);
#1473=CARTESIAN_POINT('',(1.25,2.,2.5));
#1474=LINE('',#1473,#52);
#1475=ORIENTED_EDGE('',*,*,#1457,.F.);
#1476=ORIENTED_EDGE('',*,*,#1477,.F.);
#1477=EDGE_CURVE('',#1472,#1458,#1478,.T.);
#1478=LINE('',#1473,#172);
#1479=PLANE('',#1480);
#1480=AXIS2_PLACEMENT_3D('',#1473,#110,#13);
#1481=ADVANCED_FACE('',(#1482),#1489,.T.);
#1482=FACE_BOUND('',#1483,.T.);
#1483=EDGE_LOOP('',(#1484,#1192,#1485,#1486));
#1484=ORIENTED_EDGE('',*,*,#1444,.T.);
#1485=ORIENTED_EDGE('',*,*,#1471,.F.);
#1486=ORIENTED_EDGE('',*,*,#1487,.F.);
#1487=EDGE_CURVE('',#1445,#1472,#1488,.T.);
#1488=LINE('',#1446,#34);
#1489=PLANE('',#1490);
#1490=AXIS2_PLACEMENT_3D('',#1446,#13,#14);
#1491=ADVANCED_FACE('',(#1492),#1498,.T.);
#1492=FACE_BOUND('',#1493,.T.);
#1493=EDGE_LOOP('',(#1279,#1233,#1494));
#1494=ORIENTED_EDGE('',*,*,#1495,.F.);
#1495=EDGE_CURVE('',#1275,#1235,#1496,.T.);
#1496=LINE('',#1497,#27);
#1497=CARTESIAN_POINT('',(5.43,-2.2,13.6));
#1498=PLANE('',#1238);
#1499=ADVANCED_FACE('',(#1500),#1508,.F.);
#1500=FACE_BOUND('',#1501,.F.);
#1501=EDGE_LOOP('',(#1494,#1502,#1503,#1507));
#1502=ORIENTED_EDGE('',*,*,#1274,.T.);
#1503=ORIENTED_EDGE('',*,*,#1504,.T.);
#1504=EDGE_CURVE('',#1271,#1242,#1505,.T.);
#1505=LINE('',#1506,#27);
#1506=CARTESIAN_POINT('',(5.43,-2.2,12.9));
#1507=ORIENTED_EDGE('',*,*,#1241,.F.);
#1508=PLANE('',#1509);
#1509=AXIS2_PLACEMENT_3D('',#1497,#14,#28);
#1510=ADVANCED_FACE('',(#1511),#1517,.T.);
#1511=FACE_BOUND('',#1512,.T.);
#1512=EDGE_LOOP('',(#1513,#1269,#1503,#1246));
#1513=ORIENTED_EDGE('',*,*,#1514,.T.);
#1514=EDGE_CURVE('',#1248,#1265,#1515,.T.);
#1515=LINE('',#1516,#52);
#1516=CARTESIAN_POINT('',(4.73,1.8,12.9));
#1517=PLANE('',#1518);
#1518=AXIS2_PLACEMENT_3D('',#1252,#13,#14);
#1519=ADVANCED_FACE('',(#1520),#1528,.F.);
#1520=FACE_BOUND('',#1521,.F.);
#1521=EDGE_LOOP('',(#1522,#1526,#1513,#1527));
#1522=ORIENTED_EDGE('',*,*,#1523,.F.);
#1523=EDGE_CURVE('',#1255,#1261,#1524,.T.);
#1524=LINE('',#1525,#52);
#1525=CARTESIAN_POINT('',(4.73,1.8,13.6));
#1526=ORIENTED_EDGE('',*,*,#1254,.T.);
#1527=ORIENTED_EDGE('',*,*,#1264,.F.);
#1528=PLANE('',#1529);
#1529=AXIS2_PLACEMENT_3D('',#1525,#110,#53);
#1530=ADVANCED_FACE('',(#1531),#1498,.T.);
#1531=FACE_BOUND('',#1532,.T.);
#1532=EDGE_LOOP('',(#1522,#1259));
#1533=ADVANCED_FACE('',(#1534),#1540,.T.);
#1534=FACE_BOUND('',#1535,.T.);
#1535=EDGE_LOOP('',(#1360,#1314,#1536));
#1536=ORIENTED_EDGE('',*,*,#1537,.F.);
#1537=EDGE_CURVE('',#1356,#1316,#1538,.T.);
#1538=LINE('',#1539,#27);
#1539=CARTESIAN_POINT('',(0.35,-2.2,13.6));
#1540=PLANE('',#1319);
#1541=ADVANCED_FACE('',(#1542),#1550,.F.);
#1542=FACE_BOUND('',#1543,.F.);
#1543=EDGE_LOOP('',(#1536,#1544,#1545,#1549));
#1544=ORIENTED_EDGE('',*,*,#1355,.T.);
#1545=ORIENTED_EDGE('',*,*,#1546,.T.);
#1546=EDGE_CURVE('',#1352,#1323,#1547,.T.);
#1547=LINE('',#1548,#27);
#1548=CARTESIAN_POINT('',(0.35,-2.2,12.9));
#1549=ORIENTED_EDGE('',*,*,#1322,.F.);
#1550=PLANE('',#1551);
#1551=AXIS2_PLACEMENT_3D('',#1539,#14,#28);
#1552=ADVANCED_FACE('',(#1553),#1559,.T.);
#1553=FACE_BOUND('',#1554,.T.);
#1554=EDGE_LOOP('',(#1555,#1350,#1545,#1327));
#1555=ORIENTED_EDGE('',*,*,#1556,.T.);
#1556=EDGE_CURVE('',#1329,#1346,#1557,.T.);
#1557=LINE('',#1558,#52);
#1558=CARTESIAN_POINT('',(-0.35,1.8,12.9));
#1559=PLANE('',#1560);
#1560=AXIS2_PLACEMENT_3D('',#1333,#13,#14);
#1561=ADVANCED_FACE('',(#1562),#1570,.F.);
#1562=FACE_BOUND('',#1563,.F.);
#1563=EDGE_LOOP('',(#1564,#1568,#1555,#1569));
#1564=ORIENTED_EDGE('',*,*,#1565,.F.);
#1565=EDGE_CURVE('',#1336,#1342,#1566,.T.);
#1566=LINE('',#1567,#52);
#1567=CARTESIAN_POINT('',(-0.35,1.8,13.6));
#1568=ORIENTED_EDGE('',*,*,#1335,.T.);
#1569=ORIENTED_EDGE('',*,*,#1345,.F.);
#1570=PLANE('',#1571);
#1571=AXIS2_PLACEMENT_3D('',#1567,#110,#53);
#1572=ADVANCED_FACE('',(#1573),#1540,.T.);
#1573=FACE_BOUND('',#1574,.T.);
#1574=EDGE_LOOP('',(#1564,#1340));
#1575=ADVANCED_FACE('',(#1576),#1582,.T.);
#1576=FACE_BOUND('',#1577,.T.);
#1577=EDGE_LOOP('',(#1578,#1579,#1580,#1581));
#1578=ORIENTED_EDGE('',*,*,#1402,.T.);
#1579=ORIENTED_EDGE('',*,*,#1388,.T.);
#1580=ORIENTED_EDGE('',*,*,#1426,.T.);
#1581=ORIENTED_EDGE('',*,*,#1416,.T.);
#1582=PLANE('',#1583);
#1583=AXIS2_PLACEMENT_3D('',#1584,#53,#165);
#1584=CARTESIAN_POINT('',(5.08,2.,3.75));
#1585=ADVANCED_FACE('',(#1586),#1592,.T.);
#1586=FACE_BOUND('',#1587,.T.);
#1587=EDGE_LOOP('',(#1588,#1589,#1590,#1591));
#1588=ORIENTED_EDGE('',*,*,#1463,.T.);
#1589=ORIENTED_EDGE('',*,*,#1449,.T.);
#1590=ORIENTED_EDGE('',*,*,#1487,.T.);
#1591=ORIENTED_EDGE('',*,*,#1477,.T.);
#1592=PLANE('',#1593);
#1593=AXIS2_PLACEMENT_3D('',#1594,#53,#165);
#1594=CARTESIAN_POINT('',(4.440892098501E-16,2.,3.75));
#1595=( GEOMETRIC_REPRESENTATION_CONTEXT(3) GLOBAL_UNCERTAINTY_ASSIGNED_CONTEXT((#1599)) GLOBAL_UNIT_ASSIGNED_CONTEXT((#1596,#1597,#1598)) REPRESENTATION_CONTEXT('Context #1','3D Context with UNIT and UNCERTAINTY') );
#1596=( LENGTH_UNIT() NAMED_UNIT(*) SI_UNIT(.MILLI.,.METRE.) );
#1597=( NAMED_UNIT(*) PLANE_ANGLE_UNIT() SI_UNIT($,.RADIAN.) );
#1598=( NAMED_UNIT(*) SI_UNIT($,.STERADIAN.) SOLID_ANGLE_UNIT() );
#1599=UNCERTAINTY_MEASURE_WITH_UNIT(LENGTH_MEASURE(1.E-07),#1596,'distance_accuracy_value','confusion accuracy');
#1600=MECHANICAL_DESIGN_GEOMETRIC_PRESENTATION_REPRESENTATION('',(#1601,#1611,#1620,#1621,#1622,#1623,#1624,#1625,#1626,#1627,#1628,#1629,#1630,#1631,#1632,#1633,#1634,#1635,#1636,#1637,#1638,#1639,#1640,#1641,#1642,#1643,#1644,#1645,#1646,#1647,#1648,#1649,#1650,#1651,#1652,#1653,#1654,#1655,#1656,#1657,#1658,#1659,#1660,#1661,#1662,#1663,#1664,#1665,#1666,#1667,#1668,#1669,#1670,#1671,#1672,#1673,#1674,#1675,#1676,#1677,#1678,#1679,#1680,#1681,#1682,#1683,#1684,#1685,#1686,#1687,#1688,#1689,#1690,#1691,#1692,#1693,#1694,#1695,#1696,#1697,#1698,#1699,#1700,#1701,#1702,#1703,#1704,#1705,#1706,#1707,#1708,#1709,#1710,#1711,#1712,#1713,#1714),#1595);
#1601=STYLED_ITEM('color',(#1602),#17);
#1602=PRESENTATION_STYLE_ASSIGNMENT((#1603,#1609));
#1603=SURFACE_STYLE_USAGE(.BOTH.,#1604);
#1604=SURFACE_SIDE_STYLE('',(#1605));
#1605=SURFACE_STYLE_FILL_AREA(#1606);
#1606=FILL_AREA_STYLE('',(#1607));
#1607=FILL_AREA_STYLE_COLOUR('',#1608);
#1608=COLOUR_RGB('',0.339999993741,0.679999990811,0.445000007484);
#1609=CURVE_STYLE('',#1610,POSITIVE_LENGTH_MEASURE(0.1),#1608);
#1610=DRAUGHTING_PRE_DEFINED_CURVE_FONT('continuous');
#1611=OVER_RIDING_STYLED_ITEM('overriding color',(#1612),#90,#1601);
#1612=PRESENTATION_STYLE_ASSIGNMENT((#1613,#1619));
#1613=SURFACE_STYLE_USAGE(.BOTH.,#1614);
#1614=SURFACE_SIDE_STYLE('',(#1615));
#1615=SURFACE_STYLE_FILL_AREA(#1616);
#1616=FILL_AREA_STYLE('',(#1617));
#1617=FILL_AREA_STYLE_COLOUR('',#1618);
#1618=COLOUR_RGB('',0.823999987314,0.819999987296,0.781000009244);
#1619=CURVE_STYLE('',#1610,POSITIVE_LENGTH_MEASURE(0.1),#1618);
#1620=OVER_RIDING_STYLED_ITEM('overriding color',(#1612),#112,#1601);
#1621=OVER_RIDING_STYLED_ITEM('overriding color',(#1612),#104,#1601);
#1622=OVER_RIDING_STYLED_ITEM('overriding color',(#1612),#98,#1601);
#1623=OVER_RIDING_STYLED_ITEM('overriding color',(#1612),#118,#1601);
#1624=OVER_RIDING_STYLED_ITEM('overriding color',(#1612),#138,#1601);
#1625=OVER_RIDING_STYLED_ITEM('overriding color',(#1612),#132,#1601);
#1626=OVER_RIDING_STYLED_ITEM('overriding color',(#1612),#126,#1601);
#1627=STYLED_ITEM('color',(#1602),#143);
#1628=STYLED_ITEM('color',(#1602),#201);
#1629=STYLED_ITEM('color',(#1602),#261);
#1630=STYLED_ITEM('color',(#1602),#277);
#1631=STYLED_ITEM('color',(#1602),#320);
#1632=STYLED_ITEM('color',(#1602),#335);
#1633=STYLED_ITEM('color',(#1602),#349);
#1634=STYLED_ITEM('color',(#1602),#361);
#1635=STYLED_ITEM('color',(#1602),#375);
#1636=STYLED_ITEM('color',(#1602),#385);
#1637=STYLED_ITEM('color',(#1612),#395);
#1638=STYLED_ITEM('color',(#1612),#415);
#1639=STYLED_ITEM('color',(#1612),#430);
#1640=STYLED_ITEM('color',(#1612),#445);
#1641=STYLED_ITEM('color',(#1612),#455);
#1642=STYLED_ITEM('color',(#1612),#475);
#1643=STYLED_ITEM('color',(#1612),#490);
#1644=STYLED_ITEM('color',(#1612),#505);
#1645=STYLED_ITEM('color',(#1602),#515);
#1646=STYLED_ITEM('color',(#1602),#528);
#1647=STYLED_ITEM('color',(#1602),#556);
#1648=STYLED_ITEM('color',(#1602),#563);
#1649=STYLED_ITEM('color',(#1602),#569);
#1650=STYLED_ITEM('color',(#1602),#577);
#1651=STYLED_ITEM('color',(#1602),#595);
#1652=STYLED_ITEM('color',(#1602),#609);
#1653=STYLED_ITEM('color',(#1602),#623);
#1654=STYLED_ITEM('color',(#1602),#633);
#1655=STYLED_ITEM('color',(#1602),#651);
#1656=STYLED_ITEM('color',(#1602),#665);
#1657=STYLED_ITEM('color',(#1602),#679);
#1658=STYLED_ITEM('color',(#1602),#689);
#1659=STYLED_ITEM('color',(#1612),#695);
#1660=STYLED_ITEM('color',(#1612),#701);
#1661=STYLED_ITEM('color',(#1602),#707);
#1662=STYLED_ITEM('color',(#1602),#774);
#1663=STYLED_ITEM('color',(#1602),#841);
#1664=STYLED_ITEM('color',(#1602),#862);
#1665=STYLED_ITEM('color',(#1602),#878);
#1666=STYLED_ITEM('color',(#1602),#894);
#1667=STYLED_ITEM('color',(#1602),#908);
#1668=STYLED_ITEM('color',(#1602),#929);
#1669=STYLED_ITEM('color',(#1602),#945);
#1670=STYLED_ITEM('color',(#1602),#961);
#1671=STYLED_ITEM('color',(#1602),#975);
#1672=STYLED_ITEM('color',(#1612),#983);
#1673=STYLED_ITEM('color',(#1612),#1002);
#1674=STYLED_ITEM('color',(#1612),#1015);
#1675=STYLED_ITEM('color',(#1612),#1030);
#1676=STYLED_ITEM('color',(#1602),#1047);
#1677=STYLED_ITEM('color',(#1612),#1052);
#1678=STYLED_ITEM('color',(#1602),#1057);
#1679=STYLED_ITEM('color',(#1612),#1065);
#1680=STYLED_ITEM('color',(#1612),#1084);
#1681=STYLED_ITEM('color',(#1612),#1097);
#1682=STYLED_ITEM('color',(#1612),#1112);
#1683=STYLED_ITEM('color',(#1602),#1129);
#1684=STYLED_ITEM('color',(#1612),#1134);
#1685=STYLED_ITEM('color',(#1612),#1139);
#1686=STYLED_ITEM('color',(#1612),#1173);
#1687=STYLED_ITEM('color',(#1612),#1207);
#1688=STYLED_ITEM('color',(#1612),#1218);
#1689=STYLED_ITEM('color',(#1612),#1283);
#1690=STYLED_ITEM('color',(#1612),#1288);
#1691=STYLED_ITEM('color',(#1612),#1299);
#1692=STYLED_ITEM('color',(#1612),#1364);
#1693=STYLED_ITEM('color',(#1612),#1369);
#1694=STYLED_ITEM('color',(#1612),#1374);
#1695=STYLED_ITEM('color',(#1612),#1392);
#1696=STYLED_ITEM('color',(#1612),#1406);
#1697=STYLED_ITEM('color',(#1612),#1420);
#1698=STYLED_ITEM('color',(#1612),#1430);
#1699=STYLED_ITEM('color',(#1612),#1435);
#1700=STYLED_ITEM('color',(#1612),#1453);
#1701=STYLED_ITEM('color',(#1612),#1467);
#1702=STYLED_ITEM('color',(#1612),#1481);
#1703=STYLED_ITEM('color',(#1612),#1491);
#1704=STYLED_ITEM('color',(#1612),#1499);
#1705=STYLED_ITEM('color',(#1612),#1510);
#1706=STYLED_ITEM('color',(#1612),#1519);
#1707=STYLED_ITEM('color',(#1612),#1530);
#1708=STYLED_ITEM('color',(#1612),#1533);
#1709=STYLED_ITEM('color',(#1612),#1541);
#1710=STYLED_ITEM('color',(#1612),#1552);
#1711=STYLED_ITEM('color',(#1612),#1561);
#1712=STYLED_ITEM('color',(#1612),#1572);
#1713=STYLED_ITEM('color',(#1602),#1575);
#1714=STYLED_ITEM('color',(#1602),#1585);
ENDSEC;
END-ISO-10303-21;
