#VRML V2.0 utf8
# 3D model generated by easyeda2kicad.py (https://github.com/uPesy/easyeda2kicad.py)

Shape{
    appearance Appearance {
        material  Material 	{
            diffuseColor 0.09803921568627451 0.09803921568627451 0.09803921568627451
            specularColor 0.09803921568627451 0.09803921568627451 0.09803921568627451
            ambientIntensity 0.098
            transparency 0.0
            shininess 0.5
        }
    }
    geometry IndexedFaceSet {
        ccw TRUE
        solid FALSE
        coord DEF co Coordinate {
            point [
                0.2008 -0.122 0.0157, 0.1939 -0.122 0.0157, 0.1939 -0.0209 0.0157, -0.0059 -0.0121 0.0157, -0.0078 0.0045 0.0157, -0.0059 0.0078 0.0157, -0.0078 0.0066 0.0157, -0.0099 0.0075 0.0157, -0.0107 -0.0121 0.0157, -0.0101 -0.0121 0.0157, -0.0078 -0.0115 0.0157, -0.0078 -0.0088 0.0157, -0.01 -0.0098 0.0157, -0.0082 0.0047 0.0157, -0.0124 -0.0101 0.0157, -0.0144 -0.0099 0.0157, -0.0158 -0.0094 0.0157, -0.0172 -0.0084 0.0157, -0.0184 -0.0071 0.0157, -0.0198 -0.002 0.0157, -0.0196 0.0002 0.0157, -0.0191 0.0018 0.0157, -0.0147 0.0055 0.0157, -0.0129 0.0057 0.0157, -0.0161 0.005 0.0157, -0.0174 0.0042 0.0157, -0.0183 0.0032 0.0157, -0.0103 0.0054 0.0157, -0.0192 -0.0056 0.0157, -0.0197 -0.0035 0.0157, -0.0125 -0.0123 0.0157, -0.0059 -0.0209 0.0157, -0.0139 -0.0121 0.0157, -0.0233 -0.0209 0.0157, -0.0214 -0.0068 0.0157, -0.0203 -0.0087 0.0157, -0.0233 -0.0121 0.0157, -0.0176 0.007 0.0157, -0.0192 0.006 0.0157, -0.0233 0.0078 0.0157, -0.0206 0.0044 0.0157, -0.0217 0.0025 0.0157, -0.0185 -0.0104 0.0157, -0.0166 -0.0115 0.0157, -0.0144 -0.0121 0.0157, -0.0223 0.0005 0.0157, -0.0225 -0.0018 0.0157, -0.0222 -0.0046 0.0157, -0.0119 0.0078 0.0157, -0.0127 0.0079 0.0157, -0.0059 0.0187 0.0157, -0.0132 0.0079 0.0157, -0.0233 0.0187 0.0157, -0.0144 0.0078 0.0157, -0.0157 0.0076 0.0157, -0.187 -0.0209 0.0157, -0.187 -0.1083 0.0157, -0.2008 -0.122 0.0157, -0.0516 -0.122 0.0157, -0.2008 -0.0209 0.0157, -0.2008 -0.0121 0.0157, -0.187 -0.0121 0.0157, -0.2008 0.0078 0.0157, -0.187 0.0078 0.0157, -0.2008 0.0187 0.0157, -0.187 0.0187 0.0157, -0.187 0.1083 0.0157, -0.2008 0.1152 0.0157, -0.0689 0.1083 0.0157, -0.0516 0.1152 0.0157, -0.0689 0.0187 0.0157, -0.0516 -0.0209 0.0157, -0.0516 -0.0121 0.0157, -0.0241 0.0055 0.0157, -0.0241 0.0077 0.0157, -0.0342 0.0077 0.0157, -0.0316 0.0055 0.0157, -0.0316 -0.012 0.0157, -0.0342 -0.012 0.0157, -0.0516 0.0078 0.0157, -0.0516 0.0187 0.0157, 0.0061 -0.012 0.0157, 0.0085 -0.0121 0.0157, 0.0061 -0.0099 0.0157, 0.0066 0.0055 0.0157, 0.0085 0.0078 0.0157, 0.0066 0.0077 0.0157, -0.004 0.0077 0.0157, -0.004 -0.012 0.0157, -0.0013 -0.0012 0.0157, -0.0013 0.0055 0.0157, 0.0056 -0.0012 0.0157, 0.0056 -0.0034 0.0157, -0.0013 -0.0034 0.0157, -0.0013 -0.0099 0.0157, 0.016 -0.012 0.0157, 0.027 -0.0121 0.0157, 0.0188 -0.0117 0.0157, 0.0211 -0.0109 0.0157, 0.0233 -0.0095 0.0157, 0.0253 0.0023 0.0157, 0.0242 0.004 0.0157, 0.027 0.0078 0.0157, 0.0225 0.0056 0.0157, 0.0205 0.0068 0.0157, 0.0233 -0.0095 0.0157, 0.0247 -0.0079 0.0157, 0.0256 -0.0062 0.0157, 0.0182 0.0074 0.0157, 0.0158 0.0077 0.0157, 0.0104 0.0077 0.0157, 0.0104 -0.012 0.0157, 0.0261 -0.0043 0.0157, 0.0263 -0.0024 0.0157, 0.026 0.0002 0.0157, -0.0689 -0.1083 0.0157, -0.0233 -0.122 0.0157, -0.0059 -0.122 0.0157, 0.0085 -0.122 0.0157, 0.0085 -0.0209 0.0157, 0.027 -0.122 0.0157, 0.027 -0.0209 0.0157, 0.0572 -0.122 0.0157, 0.0572 -0.0209 0.0157, 0.0378 -0.012 0.0157, 0.0455 0.0077 0.0157, 0.0572 0.0078 0.0157, 0.0406 0.0021 0.0157, 0.0325 0.0021 0.0157, 0.0426 0.0077 0.0157, 0.0306 0.0077 0.0157, 0.0277 0.0077 0.0157, -0.0689 -0.0209 0.0157, -0.0689 -0.0121 0.0157, -0.0689 0.0078 0.0157, -0.0233 0.1152 0.0157, -0.0059 0.1152 0.0157, 0.0085 0.0187 0.0157, 0.0085 0.1152 0.0157, 0.027 0.0187 0.0157, 0.027 0.1152 0.0157, 0.0572 0.0187 0.0157, 0.0572 0.1152 0.0157, 0.187 -0.0295 0.0157, 0.187 -0.1083 0.0157, 0.0689 -0.1083 0.0157, 0.0689 -0.0295 0.0157, 0.0572 -0.0121 0.0157, 0.1939 -0.0121 0.0157, 0.0351 -0.012 0.0157, 0.1939 0.0078 0.0157, 0.1939 0.0187 0.0157, 0.187 0.1083 0.0157, 0.1939 0.1152 0.0157, 0.187 0.0295 0.0157, 0.0689 0.0295 0.0157, 0.0689 0.1083 0.0157, 0.2008 -0.0209 0.0157, 0.2008 -0.0121 0.0157, 0.2008 0.0078 0.0157, 0.2008 0.0187 0.0157, 0.2008 0.1152 0.0157, -0.2008 0.122 0.0157, -0.0516 0.122 0.0157, -0.0233 0.122 0.0157, -0.0059 0.122 0.0157, 0.0085 0.122 0.0157, 0.027 0.122 0.0157, 0.0572 0.122 0.0157, 0.1939 0.122 0.0157, 0.2008 0.122 0.0157
            ]
        }
        coordIndex [
            0,1,2,-1,3,4,5,-1,5,4,6,-1,5,6,7,-1,3,8,9,-1,9,10,3,-1,3,10,11,-1,3,11,4,-1,4,11,12,-1,4,12,13,-1,13,12,14,-1,13,14,15,-1,15,16,13,-1,13,16,17,-1,13,17,18,-1,19,20,13,-1,13,20,21,-1,22,23,24,-1,24,23,25,-1,21,26,13,-1,13,26,25,-1,13,25,27,-1,27,25,23,-1,18,28,13,-1,13,28,29,-1,13,29,19,-1,30,31,32,-1,32,31,33,-1,34,35,36,-1,37,38,39,-1,39,38,40,-1,39,40,41,-1,35,42,36,-1,36,42,43,-1,36,43,44,-1,41,45,39,-1,39,45,46,-1,39,46,36,-1,36,46,47,-1,36,47,34,-1,48,49,50,-1,50,49,51,-1,50,51,52,-1,52,51,53,-1,52,53,39,-1,39,53,54,-1,39,54,37,-1,55,56,57,-1,57,56,58,-1,57,59,55,-1,55,59,60,-1,55,60,61,-1,61,60,62,-1,61,62,63,-1,63,62,64,-1,63,64,65,-1,65,64,66,-1,66,64,67,-1,66,67,68,-1,68,67,69,-1,68,69,70,-1,71,72,33,-1,33,72,36,-1,33,36,32,-1,32,36,44,-1,36,73,39,-1,39,73,74,-1,39,74,75,-1,76,73,77,-1,77,73,36,-1,77,36,78,-1,78,36,72,-1,78,72,75,-1,75,72,79,-1,75,79,39,-1,39,79,80,-1,39,80,52,-1,81,82,3,-1,81,83,82,-1,82,83,84,-1,82,84,85,-1,85,84,86,-1,85,86,5,-1,5,86,87,-1,5,87,3,-1,3,87,88,-1,3,88,81,-1,89,90,91,-1,91,90,84,-1,91,84,92,-1,92,84,83,-1,92,83,93,-1,93,83,94,-1,95,96,82,-1,95,97,96,-1,96,97,98,-1,96,98,99,-1,100,101,102,-1,102,101,103,-1,102,103,104,-1,99,105,96,-1,96,105,106,-1,96,106,107,-1,104,108,102,-1,102,108,109,-1,102,109,85,-1,85,109,110,-1,85,110,82,-1,82,110,111,-1,82,111,95,-1,107,112,96,-1,96,112,113,-1,96,113,102,-1,102,113,114,-1,102,114,100,-1,56,115,58,-1,58,115,71,-1,58,71,116,-1,116,71,33,-1,116,33,117,-1,117,33,31,-1,117,31,118,-1,118,31,119,-1,118,119,120,-1,120,119,121,-1,120,121,122,-1,122,121,123,-1,124,125,126,-1,127,128,129,-1,129,128,130,-1,125,129,126,-1,126,129,130,-1,126,130,102,-1,102,130,131,-1,102,131,96,-1,115,132,71,-1,71,132,133,-1,71,133,72,-1,72,133,134,-1,72,134,79,-1,79,134,70,-1,79,70,80,-1,80,70,69,-1,80,69,52,-1,52,69,135,-1,52,135,50,-1,50,135,136,-1,50,136,137,-1,137,136,138,-1,137,138,139,-1,139,138,140,-1,139,140,141,-1,141,140,142,-1,143,2,144,-1,144,2,1,-1,144,1,145,-1,145,1,122,-1,145,122,146,-1,146,122,123,-1,146,123,143,-1,143,123,2,-1,30,8,31,-1,31,8,3,-1,31,3,119,-1,119,3,82,-1,119,82,121,-1,121,82,96,-1,121,96,123,-1,123,96,147,-1,123,147,2,-1,2,147,148,-1,131,149,96,-1,96,149,124,-1,96,124,147,-1,147,124,126,-1,147,126,148,-1,148,126,150,-1,7,48,5,-1,5,48,50,-1,5,50,85,-1,85,50,137,-1,85,137,102,-1,102,137,139,-1,102,139,126,-1,126,139,141,-1,126,141,150,-1,150,141,151,-1,152,153,154,-1,154,153,151,-1,154,151,155,-1,155,151,141,-1,155,141,156,-1,156,141,142,-1,156,142,152,-1,152,142,153,-1,0,2,157,-1,157,2,148,-1,157,148,158,-1,158,148,150,-1,158,150,159,-1,159,150,151,-1,159,151,160,-1,160,151,153,-1,160,153,161,-1,67,162,69,-1,69,162,163,-1,69,163,135,-1,135,163,164,-1,135,164,136,-1,136,164,165,-1,136,165,138,-1,138,165,166,-1,138,166,140,-1,140,166,167,-1,140,167,142,-1,142,167,168,-1,142,168,153,-1,153,168,169,-1,153,169,161,-1,161,169,170,-1,
        ]
    }
}
Shape{
    appearance Appearance {
        material  Material 	{
            diffuseColor 0.792156862745098 0.8196078431372549 0.9333333333333333
            specularColor 0.396078431372549 0.4117647058823529 0.4666666666666667
            ambientIntensity 0.8244
            transparency 0.0
            shininess 0.5
        }
    }
    geometry IndexedFaceSet {
        ccw TRUE
        solid FALSE
        coord DEF co Coordinate {
            point [
                -0.0316 -0.012 0.0157, -0.0342 -0.012 0.0157, -0.0316 0.0055 0.0157, -0.0342 0.0077 0.0157, -0.0241 0.0055 0.0157, -0.0241 0.0077 0.0157, -0.01 -0.0098 0.0157, -0.0078 -0.0088 0.0157, -0.0078 -0.0115 0.0157, -0.0078 0.0066 0.0157, -0.0078 0.0045 0.0157, -0.0082 0.0047 0.0157, -0.0099 0.0075 0.0157, -0.0103 0.0054 0.0157, -0.0119 0.0078 0.0157, -0.0129 0.0057 0.0157, -0.0127 0.0079 0.0157, -0.0132 0.0079 0.0157, -0.0147 0.0055 0.0157, -0.0144 0.0078 0.0157, -0.0101 -0.0121 0.0157, -0.0107 -0.0121 0.0157, -0.0124 -0.0101 0.0157, -0.0125 -0.0123 0.0157, -0.0139 -0.0121 0.0157, -0.0144 -0.0099 0.0157, -0.0144 -0.0121 0.0157, -0.0158 -0.0094 0.0157, -0.0166 -0.0115 0.0157, -0.0172 -0.0084 0.0157, -0.0185 -0.0104 0.0157, -0.0184 -0.0071 0.0157, -0.0203 -0.0087 0.0157, -0.0192 -0.0056 0.0157, -0.0214 -0.0068 0.0157, -0.0197 -0.0035 0.0157, -0.0222 -0.0046 0.0157, -0.0198 -0.002 0.0157, -0.0225 -0.0018 0.0157, -0.0196 0.0002 0.0157, -0.0223 0.0005 0.0157, -0.0191 0.0018 0.0157, -0.0217 0.0025 0.0157, -0.0183 0.0032 0.0157, -0.0206 0.0044 0.0157, -0.0174 0.0042 0.0157, -0.0192 0.006 0.0157, -0.0161 0.005 0.0157, -0.0176 0.007 0.0157, -0.0157 0.0076 0.0157
            ]
        }
        coordIndex [
            0,1,2,-1,2,1,3,-1,2,3,4,-1,4,3,5,-1,6,7,8,-1,9,10,11,-1,9,11,12,-1,12,11,13,-1,12,13,14,-1,14,13,15,-1,14,15,16,-1,16,15,17,-1,17,15,18,-1,17,18,19,-1,8,20,6,-1,6,20,21,-1,6,21,22,-1,21,23,22,-1,22,23,24,-1,22,24,25,-1,25,24,26,-1,25,26,27,-1,27,26,28,-1,27,28,29,-1,29,28,30,-1,29,30,31,-1,31,30,32,-1,31,32,33,-1,33,32,34,-1,33,34,35,-1,35,34,36,-1,35,36,37,-1,37,36,38,-1,37,38,39,-1,39,38,40,-1,39,40,41,-1,41,40,42,-1,41,42,43,-1,43,42,44,-1,43,44,45,-1,45,44,46,-1,45,46,47,-1,47,46,48,-1,47,48,18,-1,18,48,49,-1,18,49,19,-1,
        ]
    }
}
Shape{
    appearance Appearance {
        material  Material 	{
            diffuseColor 0.09803921568627451 0.09803921568627451 0.09803921568627451
            specularColor 0.09803921568627451 0.09803921568627451 0.09803921568627451
            ambientIntensity 0.098
            transparency 0.0
            shininess 0.5
        }
    }
    geometry IndexedFaceSet {
        ccw TRUE
        solid FALSE
        coord DEF co Coordinate {
            point [
                0.0131 -0.0099 0.0157, 0.0131 0.0055 0.0157, 0.016 -0.0099 0.0157, 0.0159 0.0055 0.0157, 0.0179 0.0053 0.0157, 0.0236 -0.0024 0.0157, 0.0235 -0.0043 0.0157, 0.023 -0.0059 0.0157, 0.0183 -0.0096 0.0157, 0.0196 0.0048 0.0157, 0.0209 0.004 0.0157, 0.022 0.0029 0.0157, 0.0229 0.0015 0.0157, 0.0234 -0.0003 0.0157, 0.0223 -0.0071 0.0157, 0.0214 -0.0081 0.0157, 0.0199 -0.0091 0.0157
            ]
        }
        coordIndex [
            0,1,2,-1,2,1,3,-1,2,3,4,-1,5,6,2,-1,2,6,7,-1,2,7,8,-1,4,9,2,-1,2,9,10,-1,2,10,11,-1,11,12,2,-1,2,12,13,-1,2,13,5,-1,14,15,7,-1,7,15,16,-1,7,16,8,-1,
        ]
    }
}
Shape{
    appearance Appearance {
        material  Material 	{
            diffuseColor 0.792156862745098 0.8196078431372549 0.9333333333333333
            specularColor 0.396078431372549 0.4117647058823529 0.4666666666666667
            ambientIntensity 0.8244
            transparency 0.0
            shininess 0.5
        }
    }
    geometry IndexedFaceSet {
        ccw TRUE
        solid FALSE
        coord DEF co Coordinate {
            point [
                -0.004 0.0077 0.0157, 0.0066 0.0077 0.0157, 0.0066 0.0055 0.0157, -0.0013 0.0055 0.0157, -0.0013 -0.0012 0.0157, -0.004 -0.012 0.0157, 0.0061 -0.0099 0.0157, 0.0061 -0.012 0.0157, -0.0013 -0.0099 0.0157, -0.0013 -0.0034 0.0157, 0.0056 -0.0034 0.0157, 0.0056 -0.0012 0.0157
            ]
        }
        coordIndex [
            0,1,2,-1,2,3,0,-1,0,3,4,-1,0,4,5,-1,6,7,8,-1,8,7,5,-1,8,5,9,-1,9,5,4,-1,9,4,10,-1,10,4,11,-1,
        ]
    }
}
Shape{
    appearance Appearance {
        material  Material 	{
            diffuseColor 0.09803921568627451 0.09803921568627451 0.09803921568627451
            specularColor 0.09803921568627451 0.09803921568627451 0.09803921568627451
            ambientIntensity 0.098
            transparency 0.0
            shininess 0.5
        }
    }
    geometry IndexedFaceSet {
        ccw TRUE
        solid FALSE
        coord DEF co Coordinate {
            point [
                0.0331 -0.0 0.0157, 0.0397 -0.0 0.0157, 0.0361 -0.0082 0.0157, 0.0367 -0.0082 0.0157, 0.0363 -0.0089 0.0157, 0.0366 -0.0089 0.0157, 0.0364 -0.0096 0.0157, 0.0364 -0.0096 0.0157
            ]
        }
        coordIndex [
            0,1,2,-1,2,1,3,-1,2,3,4,-1,4,3,5,-1,4,5,6,-1,6,5,7,-1,
        ]
    }
}
Shape{
    appearance Appearance {
        material  Material 	{
            diffuseColor 0.792156862745098 0.8196078431372549 0.9333333333333333
            specularColor 0.396078431372549 0.4117647058823529 0.4666666666666667
            ambientIntensity 0.8244
            transparency 0.0
            shininess 0.5
        }
    }
    geometry IndexedFaceSet {
        ccw TRUE
        solid FALSE
        coord DEF co Coordinate {
            point [
                0.0256 -0.0062 0.0157, 0.0247 -0.0079 0.0157, 0.0223 -0.0071 0.0157, 0.0233 -0.0095 0.0157, 0.0214 -0.0081 0.0157, 0.0233 -0.0095 0.0157, 0.0199 -0.0091 0.0157, 0.0211 -0.0109 0.0157, 0.0183 -0.0096 0.0157, 0.0188 -0.0117 0.0157, 0.016 -0.0099 0.0157, 0.016 -0.012 0.0157, 0.0131 -0.0099 0.0157, 0.0104 -0.012 0.0157, 0.0131 0.0055 0.0157, 0.0104 0.0077 0.0157, 0.0159 0.0055 0.0157, 0.0158 0.0077 0.0157, 0.0179 0.0053 0.0157, 0.0182 0.0074 0.0157, 0.0196 0.0048 0.0157, 0.0205 0.0068 0.0157, 0.0209 0.004 0.0157, 0.0225 0.0056 0.0157, 0.022 0.0029 0.0157, 0.0242 0.004 0.0157, 0.0229 0.0015 0.0157, 0.0253 0.0023 0.0157, 0.0234 -0.0003 0.0157, 0.026 0.0002 0.0157, 0.0236 -0.0024 0.0157, 0.0263 -0.0024 0.0157, 0.0235 -0.0043 0.0157, 0.0261 -0.0043 0.0157, 0.023 -0.0059 0.0157
            ]
        }
        coordIndex [
            0,1,2,-1,2,1,3,-1,2,3,4,-1,4,3,5,-1,4,5,6,-1,6,5,7,-1,6,7,8,-1,8,7,9,-1,8,9,10,-1,10,9,11,-1,10,11,12,-1,12,11,13,-1,12,13,14,-1,14,13,15,-1,14,15,16,-1,16,15,17,-1,16,17,18,-1,18,17,19,-1,18,19,20,-1,20,19,21,-1,20,21,22,-1,22,21,23,-1,22,23,24,-1,24,23,25,-1,24,25,26,-1,26,25,27,-1,26,27,28,-1,28,27,29,-1,28,29,30,-1,30,29,31,-1,30,31,32,-1,32,31,33,-1,32,33,34,-1,34,33,0,-1,34,0,2,-1,
        ]
    }
}
Shape{
    appearance Appearance {
        material  Material 	{
            diffuseColor 0.09803921568627451 0.09803921568627451 0.09803921568627451
            specularColor 0.09803921568627451 0.09803921568627451 0.09803921568627451
            ambientIntensity 0.098
            transparency 0.0
            shininess 0.5
        }
    }
    geometry IndexedFaceSet {
        ccw TRUE
        solid FALSE
        coord DEF co Coordinate {
            point [
                0.0748 -0.122 0.0551, 0.1732 -0.122 0.0551, 0.2008 -0.122 0.1969, -0.0433 -0.122 0.0354, -0.1614 -0.122 0.0354, -0.2008 -0.122 0.0157, -0.1614 -0.122 0.0551, -0.2008 -0.122 0.1969, -0.0516 -0.122 0.0157, -0.0233 -0.122 0.0157, -0.0433 -0.122 0.0551, -0.0059 -0.122 0.0157, 0.0085 -0.122 0.0157, 0.027 -0.122 0.0157, 0.0748 -0.122 0.0354, 0.0572 -0.122 0.0157, 0.1732 -0.122 0.0354, 0.1939 -0.122 0.0157, 0.2008 -0.122 0.0157
            ]
        }
        coordIndex [
            0,1,2,-1,3,4,5,-1,5,4,6,-1,5,6,7,-1,5,8,3,-1,3,8,9,-1,3,9,10,-1,7,6,2,-1,2,6,10,-1,2,10,0,-1,9,11,10,-1,10,11,12,-1,10,12,0,-1,0,12,13,-1,0,13,14,-1,14,13,15,-1,14,15,16,-1,16,15,17,-1,16,17,1,-1,1,17,18,-1,1,18,2,-1,
        ]
    }
}
Shape{
    appearance Appearance {
        material  Material 	{
            diffuseColor 0.792156862745098 0.8196078431372549 0.9333333333333333
            specularColor 0.396078431372549 0.4117647058823529 0.4666666666666667
            ambientIntensity 0.8244
            transparency 0.0
            shininess 0.5
        }
    }
    geometry IndexedFaceSet {
        ccw TRUE
        solid FALSE
        coord DEF co Coordinate {
            point [
                -0.1614 -0.122 0.0551, -0.1614 -0.122 0.0354, -0.0433 -0.122 0.0551, -0.0433 -0.122 0.0354
            ]
        }
        coordIndex [
            0,1,2,-1,2,1,3,-1,
        ]
    }
}
Shape{
    appearance Appearance {
        material  Material 	{
            diffuseColor 0.09803921568627451 0.09803921568627451 0.09803921568627451
            specularColor 0.09803921568627451 0.09803921568627451 0.09803921568627451
            ambientIntensity 0.098
            transparency 0.0
            shininess 0.5
        }
    }
    geometry IndexedFaceSet {
        ccw TRUE
        solid FALSE
        coord DEF co Coordinate {
            point [
                0.0748 0.122 0.0551, 0.0085 0.122 0.0157, -0.0433 0.122 0.0354, -0.0059 0.122 0.0157, 0.2008 0.122 0.1969, -0.0433 0.122 0.0551, -0.2008 0.122 0.1969, -0.1614 0.122 0.0551, -0.2008 0.122 0.0157, -0.1614 0.122 0.0354, -0.0516 0.122 0.0157, -0.0233 0.122 0.0157, 0.1732 0.122 0.0551, 0.2008 0.122 0.0157, 0.1732 0.122 0.0354, 0.1939 0.122 0.0157, 0.0748 0.122 0.0354, 0.0572 0.122 0.0157, 0.027 0.122 0.0157
            ]
        }
        coordIndex [
            0,1,2,-1,2,1,3,-1,4,5,6,-1,6,5,7,-1,6,7,8,-1,8,7,9,-1,8,9,10,-1,10,9,2,-1,10,2,11,-1,11,2,3,-1,2,5,0,-1,0,5,4,-1,0,4,12,-1,12,4,13,-1,12,13,14,-1,14,13,15,-1,14,15,16,-1,16,15,17,-1,16,17,0,-1,0,17,18,-1,0,18,1,-1,
        ]
    }
}
Shape{
    appearance Appearance {
        material  Material 	{
            diffuseColor 0.792156862745098 0.8196078431372549 0.9333333333333333
            specularColor 0.396078431372549 0.4117647058823529 0.4666666666666667
            ambientIntensity 0.8244
            transparency 0.0
            shininess 0.5
        }
    }
    geometry IndexedFaceSet {
        ccw TRUE
        solid FALSE
        coord DEF co Coordinate {
            point [
                0.1732 0.122 0.0551, 0.1732 0.122 0.0354, 0.0748 0.122 0.0551, 0.0748 0.122 0.0354, 0.0331 -0.0 0.0157, 0.0361 -0.0082 0.0157, 0.0351 -0.012 0.0157, 0.0277 0.0077 0.0157, 0.0306 0.0077 0.0157, 0.0325 0.0021 0.0157, 0.0363 -0.0089 0.0157, 0.0364 -0.0096 0.0157, 0.0378 -0.012 0.0157, 0.0364 -0.0096 0.0157, 0.0366 -0.0089 0.0157, 0.0397 -0.0 0.0157, 0.0406 0.0021 0.0157, 0.0367 -0.0082 0.0157, 0.0455 0.0077 0.0157, 0.0426 0.0077 0.0157, -0.0433 0.122 0.0551, -0.0433 0.122 0.0354, -0.1614 0.122 0.0551, -0.1614 0.122 0.0354
            ]
        }
        coordIndex [
            0,1,2,-1,2,1,3,-1,4,5,6,-1,7,8,9,-1,5,10,6,-1,6,10,11,-1,6,11,12,-1,12,11,13,-1,12,13,14,-1,6,7,4,-1,4,7,9,-1,4,9,15,-1,15,9,16,-1,14,17,12,-1,12,17,15,-1,12,15,18,-1,18,15,16,-1,18,16,19,-1,20,21,22,-1,22,21,23,-1,
        ]
    }
}
Shape{
    appearance Appearance {
        material  Material 	{
            diffuseColor 0.09803921568627451 0.09803921568627451 0.09803921568627451
            specularColor 0.09803921568627451 0.09803921568627451 0.09803921568627451
            ambientIntensity 0.098
            transparency 0.0
            shininess 0.5
        }
    }
    geometry IndexedFaceSet {
        ccw TRUE
        solid FALSE
        coord DEF co Coordinate {
            point [
                0.2008 -0.122 0.0157, 0.2008 -0.0209 0.0157, 0.2008 -0.122 0.1969, 0.2008 -0.0121 0.0157, 0.2008 0.122 0.1969, 0.2008 0.0078 0.0157, 0.2008 0.0187 0.0157, 0.2008 0.1152 0.0157, 0.2008 0.122 0.0157
            ]
        }
        coordIndex [
            0,1,2,-1,2,1,3,-1,2,3,4,-1,4,3,5,-1,5,6,4,-1,4,6,7,-1,4,7,8,-1,
        ]
    }
}
Shape{
    appearance Appearance {
        material  Material 	{
            diffuseColor 0.792156862745098 0.8196078431372549 0.9333333333333333
            specularColor 0.396078431372549 0.4117647058823529 0.4666666666666667
            ambientIntensity 0.8244
            transparency 0.0
            shininess 0.5
        }
    }
    geometry IndexedFaceSet {
        ccw TRUE
        solid FALSE
        coord DEF co Coordinate {
            point [
                0.0748 -0.122 0.0551, 0.0748 -0.122 0.0354, 0.1732 -0.122 0.0551, 0.1732 -0.122 0.0354
            ]
        }
        coordIndex [
            0,1,2,-1,2,1,3,-1,
        ]
    }
}
Shape{
    appearance Appearance {
        material  Material 	{
            diffuseColor 0.09803921568627451 0.09803921568627451 0.09803921568627451
            specularColor 0.09803921568627451 0.09803921568627451 0.09803921568627451
            ambientIntensity 0.098
            transparency 0.0
            shininess 0.5
        }
    }
    geometry IndexedFaceSet {
        ccw TRUE
        solid FALSE
        coord DEF co Coordinate {
            point [
                -0.2008 -0.0209 0.0157, -0.2008 -0.122 0.0157, -0.2008 -0.122 0.1969, -0.2008 0.122 0.1969, -0.2008 0.122 0.0157, -0.2008 0.1152 0.0157, -0.2008 0.0187 0.0157, -0.2008 0.0078 0.0157, -0.2008 -0.0121 0.0157, 0.2008 -0.122 0.1969, 0.2008 0.122 0.1969
            ]
        }
        coordIndex [
            0,1,2,-1,3,4,5,-1,5,6,3,-1,3,6,7,-1,3,7,2,-1,2,7,8,-1,2,8,0,-1,2,9,3,-1,3,9,10,-1,
        ]
    }
}
Shape{
    appearance Appearance {
        material  Material 	{
            diffuseColor 0.792156862745098 0.8196078431372549 0.9333333333333333
            specularColor 0.396078431372549 0.4117647058823529 0.4666666666666667
            ambientIntensity 0.8244
            transparency 0.0
            shininess 0.5
        }
    }
    geometry IndexedFaceSet {
        ccw TRUE
        solid FALSE
        coord DEF co Coordinate {
            point [
                -0.0689 0.1083 0.0, -0.187 0.1083 0.0, -0.0689 0.1083 0.0157, -0.187 0.1083 0.0157, -0.0689 -0.0209 0.0157, -0.0689 -0.1083 0.0157, -0.0689 -0.1083 0.0, -0.0689 0.0187 0.0157, -0.0689 0.0078 0.0157, -0.0689 -0.0121 0.0157, -0.187 -0.1083 0.0, -0.187 -0.1083 0.0157, -0.187 -0.0209 0.0157, -0.187 -0.0121 0.0157, -0.187 0.0078 0.0157, -0.187 0.0187 0.0157, 0.187 0.1083 0.0, 0.0689 0.1083 0.0, 0.187 0.1083 0.0157, 0.0689 0.1083 0.0157, 0.187 0.0295 0.0, 0.187 0.0295 0.0157, 0.0689 0.0295 0.0, 0.0689 0.0295 0.0157, 0.0689 -0.1083 0.0, 0.187 -0.1083 0.0, 0.0689 -0.1083 0.0157, 0.187 -0.1083 0.0157, 0.0689 -0.0295 0.0, 0.0689 -0.0295 0.0157, 0.187 -0.0295 0.0, 0.187 -0.0295 0.0157
            ]
        }
        coordIndex [
            0,1,2,-1,2,1,3,-1,4,5,6,-1,2,7,0,-1,0,7,8,-1,0,8,6,-1,6,8,9,-1,6,9,4,-1,10,6,11,-1,11,6,5,-1,10,11,12,-1,12,13,10,-1,10,13,14,-1,10,14,1,-1,1,14,15,-1,1,15,3,-1,6,10,0,-1,0,10,1,-1,16,17,18,-1,18,17,19,-1,20,16,21,-1,21,16,18,-1,22,20,23,-1,23,20,21,-1,17,22,19,-1,19,22,23,-1,20,22,16,-1,16,22,17,-1,24,25,26,-1,26,25,27,-1,28,24,29,-1,29,24,26,-1,30,28,31,-1,31,28,29,-1,25,30,27,-1,27,30,31,-1,28,30,24,-1,24,30,25,-1,
        ]
    }
}